<?xml version="1.0" encoding="UTF-8"?>
<svg version="1.1" xmlns="http://www.w3.org/2000/svg" width="1024" height="1024">
<path d="M0 0 C2.17504488 2.24206307 3.91995219 4.80038516 5.76953125 7.3125 C7.77796319 9.87159261 7.77796319 9.87159261 10.39453125 11.4375 C14.28711589 11.38318487 17.72057114 10.5238266 21.43359375 9.46875 C37.94947584 4.79857421 56.77528629 10.40386289 71.39453125 18.4375 C91.43841064 30.48726481 105.04793539 48.45895368 110.76953125 71.1875 C114.26696776 92.82112791 109.35429467 114.34767925 97.01953125 132.375 C82.66342234 151.93399402 62.97790356 162.19059493 39.39453125 166.4375 C37.39471285 166.46445132 35.3942801 166.46919427 33.39453125 166.4375 C32.99868187 175.61664368 32.69766579 184.7928084 32.51372433 193.97865677 C32.42537938 198.24569508 32.30589095 202.50685519 32.11206055 206.77050781 C30.51680187 224.52048338 30.51680187 224.52048338 35.01425171 241.13244629 C38.83085814 245.16970091 43.16783905 247.54121938 48.29667664 249.56036377 C51.44839866 250.87813363 54.03819062 252.73082212 56.83203125 254.6875 C59.89033265 256.82652863 59.89033265 256.82652863 63.39453125 257.4375 C64.74492004 258.75355687 66.07561108 260.08990765 67.39453125 261.4375 C72.23780657 265.12260079 77.3723458 268.43201866 82.44140625 271.796875 C88.01794176 275.51057395 93.57582739 279.25132919 99.12890625 283 C100.00896332 283.59408157 100.88902039 284.18816315 101.79574585 284.80024719 C104.57876957 286.67919043 107.36165249 288.55834207 110.14453125 290.4375 C125.23274675 300.63306272 125.23274675 300.63306272 140.37109375 310.75390625 C140.93957031 311.13171234 141.50804687 311.50951843 142.09375 311.89877319 C144.59469325 313.55959077 147.09806541 315.21660847 149.60449219 316.86914062 C157.48270494 322.08526778 163.32600234 326.09401134 166.33203125 335.3125 C166.45236115 341.32899485 164.77304344 345.89487922 160.76953125 350.375 C152.40583146 355.48614987 143.0499909 354.62676456 133.58203125 354.4375 C130.99235454 354.38649701 128.40248214 354.34442582 125.8125 354.3125 C124.10743286 354.27769531 124.10743286 354.27769531 122.36791992 354.2421875 C119.39619806 354.43739051 117.95399388 355.04389926 115.39453125 356.4375 C115.39094872 357.72103096 115.39094872 357.72103096 115.38729382 359.03049183 C115.32807882 379.88074331 115.25248717 400.73087982 115.15881634 421.58100605 C115.11390943 431.6641008 115.07448302 441.74716064 115.0480957 451.83032227 C115.02507425 460.62194456 114.99162999 469.41345588 114.94582969 478.20499009 C114.92195334 482.85719474 114.903188 487.50928987 114.89691734 492.16155434 C114.89084113 496.54712189 114.87075032 500.9324094 114.84025574 505.317873 C114.83151598 506.92095236 114.82774444 508.52406837 114.82952309 510.12717056 C114.84036375 524.41588459 113.07820837 537.89123391 103.1328125 548.953125 C91.71916918 559.77548067 80.28091822 562.68209606 64.97827148 563.05419922 C63.6427743 563.09193226 62.30728419 563.12991629 60.9718008 563.16813469 C46.73181958 563.55298043 32.48896199 563.584408 18.24474096 563.57168651 C15.23164505 563.56979614 12.21855525 563.57160125 9.20545959 563.57336229 C-0.53915976 563.57901504 -10.28375462 563.57293408 -20.02837038 563.56450987 C-23.39229503 563.56182115 -26.75621992 563.55999235 -30.12014514 563.55817896 C-72.18361921 563.53520039 -114.24840098 563.49154131 -156.31082153 563.17303467 C-160.69091528 563.1398932 -165.07097469 563.11298257 -169.45114136 563.09161377 C-174.51197419 563.06622387 -179.57247776 563.02635728 -184.63310623 562.97443962 C-186.4449856 562.95796115 -188.25691601 562.94622613 -190.0688591 562.93985176 C-204.557315 562.88300388 -217.06533775 561.44135904 -228.09375 551.10546875 C-240.25406778 538.14905815 -242.05709143 523.94712332 -242.0378418 506.74511719 C-242.04687684 505.0980405 -242.05720828 503.4509705 -242.06872559 501.8039093 C-242.09611732 497.36879276 -242.10555566 492.93380442 -242.11157966 488.49861431 C-242.12101011 483.85011989 -242.14721701 479.20171948 -242.17158508 474.55328369 C-242.21512592 465.76700064 -242.24374894 456.98073597 -242.26690847 448.19437814 C-242.29402697 438.18456228 -242.3379342 428.17484159 -242.38319719 418.1650939 C-242.47586549 397.58928058 -242.54762749 377.01343878 -242.60546875 356.4375 C-246.91709355 354.57569336 -250.05510823 354.23659111 -254.77734375 354.34765625 C-256.17838176 354.36809055 -257.57942359 354.38826451 -258.98046875 354.40820312 C-261.16357987 354.45148389 -263.3464288 354.49977563 -265.52929688 354.55395508 C-284.40907734 354.98829273 -284.40907734 354.98829273 -291.04296875 349.375 C-293.85211159 344.09381146 -295.52351562 338.29005984 -293.85546875 332.375 C-288.15867162 320.93609718 -273.66189405 313.94228398 -263.36621094 307.2824707 C-258.36789268 304.04862998 -253.38788402 300.78680361 -248.40625 297.52734375 C-246.95540512 296.57944473 -246.95540512 296.57944473 -245.47525024 295.61239624 C-238.93513722 291.33208845 -232.47783843 286.96461358 -226.10546875 282.4375 C-212.87686798 273.05942162 -199.25231789 264.26259024 -185.69335938 255.37304688 C-184.28310486 254.44766365 -184.28310486 254.44766365 -182.84436035 253.50358582 C-181.07045578 252.34000696 -179.29568899 251.1777411 -177.51989746 250.01704407 C-173.83208665 247.59882218 -170.19119502 245.15671714 -166.63671875 242.5456543 C-163.60546875 240.4375 -163.60546875 240.4375 -161.60546875 240.4375 C-161.61707031 239.54933594 -161.62867188 238.66117187 -161.640625 237.74609375 C-161.72626517 225.62189225 -161.20385377 213.54524793 -160.60546875 201.4375 C-161.26546875 201.1075 -161.92546875 200.7775 -162.60546875 200.4375 C-161.94546875 200.4375 -161.28546875 200.4375 -160.60546875 200.4375 C-160.60546875 198.1275 -160.60546875 195.8175 -160.60546875 193.4375 C-161.26546875 193.1075 -161.92546875 192.7775 -162.60546875 192.4375 C-161.94546875 192.4375 -161.28546875 192.4375 -160.60546875 192.4375 C-160.74391722 188.64552551 -160.89247619 184.8540141 -161.04296875 181.0625 C-161.08228516 179.98226562 -161.12160156 178.90203125 -161.16210938 177.7890625 C-161.22495117 176.2421875 -161.22495117 176.2421875 -161.2890625 174.6640625 C-161.32572021 173.71096191 -161.36237793 172.75786133 -161.40014648 171.77587891 C-161.4631034 169.41617651 -161.4631034 169.41617651 -162.60546875 167.4375 C-165.37874095 166.72394456 -168.11267705 166.11770812 -170.91796875 165.5625 C-194.50255372 160.51625913 -213.06677259 149.81638296 -226.60546875 129.4375 C-237.83004292 110.87953737 -240.93130062 89.64348013 -236.60546875 68.4375 C-231.70834943 48.70210912 -219.01025892 30.8669668 -201.625 20.2199707 C-182.34230601 8.96907213 -162.26151522 5.88190331 -140.5546875 10.78125 C-137.78365168 11.50990141 -137.78365168 11.50990141 -135.60546875 11.4375 C-135.3528125 10.87289062 -135.10015625 10.30828125 -134.83984375 9.7265625 C-126.31580507 -6.08067379 -106.54911414 -16.15587477 -90.3125 -21.75390625 C-85.78735286 -23.10557358 -81.28308029 -23.94095436 -76.60546875 -24.5625 C-75.16300781 -24.76552734 -75.16300781 -24.76552734 -73.69140625 -24.97265625 C-46.69403023 -27.945785 -19.7650367 -18.38608066 0 0 Z M-104.60546875 14.4375 C-105.24871094 14.90285156 -105.89195312 15.36820313 -106.5546875 15.84765625 C-111.9907308 20.15900094 -115.78309446 25.50596302 -119.66162109 31.19506836 C-122.24714012 34.91489491 -124.35346544 37.5268776 -128.60546875 39.4375 C-134.93150815 40.21438203 -139.74659989 38.60411062 -145.67578125 36.41015625 C-158.6544436 32.10124035 -171.38854628 34.11002924 -183.60546875 39.4375 C-186.83376555 41.19922768 -189.71759627 43.16758328 -192.60546875 45.4375 C-193.61609375 46.159375 -194.62671875 46.88125 -195.66796875 47.625 C-204.71128569 55.53790232 -209.83009656 66.51660871 -212.41796875 78.0625 C-213.36690755 95.14339838 -210.7194713 109.64727647 -199.16796875 122.9375 C-188.97122911 133.44375281 -176.83211458 140.05037428 -161.98046875 140.5625 C-161.19671875 140.52125 -160.41296875 140.48 -159.60546875 140.4375 C-158.94546875 139.1175 -158.28546875 137.7975 -157.60546875 136.4375 C-158.32734375 135.9425 -159.04921875 135.4475 -159.79296875 134.9375 C-164.2925566 130.93786636 -166.97764594 126.67411875 -168.60546875 120.875 C-168.60546875 116.6205078 -167.72784751 114.11628986 -165.60546875 110.4375 C-162.22894059 107.44686078 -159.06995012 106.89264888 -154.5703125 107.09375 C-150.48346868 107.80874455 -147.68151011 110.59346756 -144.50390625 113.0859375 C-130.90546734 123.22939844 -115.25360938 126.05114909 -98.66796875 123.75 C-88.14000744 121.78279073 -79.51724743 117.05195162 -70.80859375 111.01171875 C-66.94068552 109.11078336 -63.79486921 108.63134566 -59.60546875 109.4375 C-56.82960156 110.57178158 -54.3802369 112.07977479 -51.85546875 113.6875 C-45.33621525 117.60164728 -39.01406619 120.53145962 -31.60546875 122.4375 C-30.868125 122.62828125 -30.13078125 122.8190625 -29.37109375 123.015625 C-12.91573849 125.52576394 4.24283478 123.49814431 17.9453125 113.59375 C19.5062476 112.37885952 21.05358003 111.1461385 22.58203125 109.890625 C25.74457712 107.35513563 28.23761233 107.09379587 32.29296875 107.16015625 C35.81657374 107.62516732 37.79883083 109.08900915 40.39453125 111.4375 C42.43953589 115.34968279 42.8253228 118.96800991 42.13671875 123.3515625 C40.65996228 127.50202542 37.47648869 130.39591754 34.39453125 133.4375 C33.59015625 134.2625 32.78578125 135.0875 31.95703125 135.9375 C31.44140625 136.4325 30.92578125 136.9275 30.39453125 137.4375 C31.05453125 138.4275 31.71453125 139.4175 32.39453125 140.4375 C34.16572928 140.29616501 35.93648412 140.14926792 37.70703125 140 C38.69316406 139.91878906 39.67929687 139.83757812 40.6953125 139.75390625 C43.48828724 139.51937441 43.48828724 139.51937441 46.39453125 138.4375 C47.57402344 138.06044922 47.57402344 138.06044922 48.77734375 137.67578125 C62.36239395 133.08937541 73.04645037 124.6729264 80.11328125 112.05078125 C86.30591009 99.42008402 88.46519299 86.07837055 84.39453125 72.4375 C83.23969768 69.60649992 81.94004532 66.86366171 80.58203125 64.125 C80.08509766 63.12049805 80.08509766 63.12049805 79.578125 62.09570312 C77.30679682 57.71466051 74.77671001 54.04329388 71.39453125 50.4375 C70.73453125 50.4375 70.07453125 50.4375 69.39453125 50.4375 C69.39453125 49.7775 69.39453125 49.1175 69.39453125 48.4375 C58.05068042 38.70053529 45.17106893 33.4909482 30.05859375 34 C24.2250973 34.69653689 18.88134522 36.39226545 13.39453125 38.4375 C10.70921565 39.3326052 8.86651862 39.65862649 6.08203125 39.75 C5.34339844 39.78738281 4.60476563 39.82476562 3.84375 39.86328125 C-0.8283114 39.05107281 -3.8430278 36.37440942 -6.7734375 32.7734375 C-7.77310547 31.30777344 -7.77310547 31.30777344 -8.79296875 29.8125 C-19.3109259 15.4028987 -33.95033289 5.00911369 -51.60546875 1.4375 C-71.07544674 -1.46485697 -88.74161133 2.63526099 -104.60546875 14.4375 Z M-67.87109375 137.94921875 C-69.20111385 138.67099795 -70.52911294 139.39650912 -71.85546875 140.125 C-83.7092497 146.24376822 -94.30900944 148.75880123 -107.60546875 148.875 C-108.56582031 148.8853125 -109.52617187 148.895625 -110.515625 148.90625 C-119.07405621 148.80258125 -125.8635277 147.18588821 -134.60546875 145.4375 C-134.60546875 170.8475 -134.60546875 196.2575 -134.60546875 222.4375 C-131.06861118 221.02275697 -128.93461274 220.15201308 -126.03125 218.0390625 C-125.37294189 217.5656543 -124.71463379 217.09224609 -124.03637695 216.60449219 C-123.33730225 216.09563477 -122.63822754 215.58677734 -121.91796875 215.0625 C-79.00043693 184.34100788 -79.00043693 184.34100788 -57.60546875 185.4375 C-56.71859375 185.48003906 -55.83171875 185.52257812 -54.91796875 185.56640625 C-50.4170226 185.91434123 -48.07698594 186.69785117 -44.60546875 189.4375 C-42.80443677 190.49887152 -40.9905989 191.53866162 -39.16796875 192.5625 C-33.84166399 195.64246595 -28.83087564 199.00833868 -23.8046875 202.55078125 C-17.88916358 206.66452943 -11.82807964 210.56492332 -5.79296875 214.5 C-5.19305115 214.89129089 -4.59313354 215.28258179 -3.97503662 215.68572998 C-0.52004065 217.9386696 2.93657206 220.18911023 6.39453125 222.4375 C8.75556359 218.74004386 8.60419806 215.59817518 8.52978516 211.28222656 C8.52032364 210.56963181 8.51086212 209.85703705 8.50111389 209.12284851 C8.46751438 206.77434187 8.4193786 204.42637178 8.37109375 202.078125 C8.34491851 200.44717804 8.31965215 198.81621626 8.29525757 197.1852417 C8.22868595 192.89757499 8.14977611 188.61022084 8.06829834 184.32281494 C7.98730071 179.94580052 7.9179689 175.56860305 7.84765625 171.19140625 C7.70803392 162.60654862 7.55537701 154.02198609 7.39453125 145.4375 C6.37507416 145.64903214 5.35561707 145.86056427 4.30526733 146.07850647 C2.94882644 146.35597529 1.59234864 146.63326371 0.23583984 146.91040039 C-0.43383316 147.04985329 -1.10350616 147.18930618 -1.79347229 147.33298492 C-7.23650081 148.43911659 -12.43798418 148.94503239 -17.98046875 148.875 C-18.86694092 148.86670166 -19.75341309 148.85840332 -20.66674805 148.84985352 C-34.30441044 148.5063756 -46.14272077 144.67549833 -58.41015625 138.92578125 C-63.07877354 136.48008464 -63.07877354 136.48008464 -67.87109375 137.94921875 Z M-90.21118164 222.78759766 C-95.25300657 226.26191731 -100.36981226 229.6267949 -105.46881104 233.01641846 C-109.16366152 235.47384708 -112.85504096 237.93648064 -116.546875 240.3984375 C-118.12107796 241.44794035 -119.69529699 242.4974191 -121.26953125 243.546875 C-122.06907227 244.07990234 -122.86861328 244.61292969 -123.69238281 245.16210938 C-166.59985351 273.76708984 -166.59985351 273.76708984 -168.28839111 274.89277649 C-169.932913 275.98912945 -171.57741849 277.08550698 -173.22192383 278.18188477 C-175.62527494 279.7841336 -178.02878898 281.38613776 -180.43237305 282.98803711 C-188.59469951 288.42820949 -188.59469951 288.42820949 -196.75 293.87890625 C-206.54279372 300.42975574 -216.3703423 306.92604798 -226.23046875 313.375 C-227.29628174 314.07246338 -228.36209473 314.76992676 -229.46020508 315.48852539 C-235.47999219 319.41995905 -241.52824005 323.29565047 -247.63427734 327.09204102 C-248.28477051 327.53604248 -248.93526367 327.98004395 -249.60546875 328.4375 C-249.60546875 328.7675 -249.60546875 329.0975 -249.60546875 329.4375 C-248.39890625 329.53546875 -247.19234375 329.6334375 -245.94921875 329.734375 C-244.334557 329.88457609 -242.7199777 330.0356653 -241.10546875 330.1875 C-239.91824219 330.2803125 -239.91824219 330.2803125 -238.70703125 330.375 C-231.91508897 331.0430599 -226.19702853 332.84594022 -221.29296875 337.75 C-213.90190901 349.52094699 -215.45668699 363.62747768 -215.5078125 377.11254883 C-215.50973743 378.62708486 -215.51119851 380.14162155 -215.51223755 381.65615845 C-215.51536979 384.8867852 -215.52159375 388.117385 -215.53030396 391.34800148 C-215.54395555 396.46374425 -215.54974695 401.57947847 -215.55444336 406.69523621 C-215.56548481 417.54683596 -215.58503826 428.39841448 -215.60546875 439.25 C-215.62753999 450.98665738 -215.64809258 462.72330618 -215.65888691 474.45998019 C-215.66384766 479.53879624 -215.67367348 484.61757185 -215.68731689 489.69637167 C-215.69480614 492.85871852 -215.69809789 496.02105993 -215.70028305 499.18341446 C-215.70214553 500.6422388 -215.70572725 502.10106219 -215.71121597 503.5598774 C-216.46743629 518.44544561 -216.46743629 518.44544561 -210.60546875 531.4375 C-204.7553375 536.04292247 -200.06613899 536.55229335 -192.78320312 536.63037109 C-192.11750809 536.63854858 -191.45181305 536.64672607 -190.76594543 536.65515137 C-188.5770454 536.67983661 -186.38820917 536.69647214 -184.19921875 536.7109375 C-183.44879807 536.71626118 -182.69837738 536.72158485 -181.92521667 536.72706985 C-177.95780461 536.75372013 -173.99042323 536.77312608 -170.02294922 536.78759766 C-166.74434687 536.80096474 -163.46636282 536.82887845 -160.18798828 536.86962891 C-156.22047598 536.91893316 -152.25352638 536.94371423 -148.28572083 536.95082474 C-146.77702172 536.95753411 -145.26833504 536.9727483 -143.7598114 536.99671555 C-141.64845222 537.02836429 -139.53926879 537.02840706 -137.42773438 537.02099609 C-136.22814087 537.02908295 -135.02854736 537.0371698 -133.79260254 537.04550171 C-128.16597008 535.97212281 -125.40098165 531.43486714 -122.3125 526.91796875 C-121.7138916 526.04317871 -121.1152832 525.16838867 -120.49853516 524.26708984 C-117.44627917 519.70484496 -114.4340285 515.11757435 -111.44177246 510.51577759 C-102.99807857 497.53733289 -94.44213081 484.63416646 -85.85546875 471.75 C-85.01705948 470.4905809 -85.01705948 470.4905809 -84.16171265 469.20571899 C-78.84971675 461.22790495 -73.53070236 453.26459345 -68.00097656 445.43530273 C-64.61580537 440.58910682 -61.55814293 435.55812864 -58.60546875 430.4375 C-58.21875 429.77492188 -57.83203125 429.11234375 -57.43359375 428.4296875 C-52.69719943 418.46538623 -55.60953744 404.24714771 -56.88452148 393.68920898 C-59.88380615 368.73526996 -51.79685961 345.05939907 -37.10546875 325 C-35.62624472 323.12921666 -34.12678812 321.27421484 -32.60546875 319.4375 C-31.88617187 318.55449219 -31.166875 317.67148437 -30.42578125 316.76171875 C-19.80401925 304.30666331 -5.17212065 294.46113966 11.33203125 292.625 C22.4996929 291.95975273 32.21200294 295.21198706 41.08203125 302.0625 C51.4213908 311.64591581 55.88633924 325.65668515 56.48046875 339.4296875 C56.66912296 349.73020723 56.30106508 359.83202271 52.39453125 369.4375 C51.99363281 370.54480469 51.59273437 371.65210938 51.1796875 372.79296875 C42.48829601 396.38388851 27.85055396 413.6027167 4.9296875 424.49609375 C-0.91487753 427.11499128 -7.01880383 429.03102908 -13.15966797 430.82836914 C-26.62798043 434.93525779 -35.36419881 443.49506374 -42.23046875 455.5 C-42.73989014 456.36995605 -43.24931152 457.23991211 -43.77416992 458.13623047 C-44.8504649 459.97497628 -45.9225856 461.81617122 -46.99072266 463.65966797 C-48.5587116 466.35706413 -50.14604757 469.04183839 -51.7421875 471.72265625 C-58.93574348 483.80898625 -65.98540861 495.97648557 -72.9921875 508.171875 C-75.3060529 512.19566654 -77.64020386 516.20610327 -80 520.203125 C-80.77512939 521.52147339 -80.77512939 521.52147339 -81.56591797 522.86645508 C-82.52448068 524.49442729 -83.48806168 526.11945902 -84.45751953 527.7409668 C-84.87630371 528.45422119 -85.29508789 529.16747559 -85.7265625 529.90234375 C-86.09193115 530.517146 -86.4572998 531.13194824 -86.83374023 531.76538086 C-87.81499364 533.58454573 -87.81499364 533.58454573 -87.60546875 536.4375 C-66.88223615 536.48424987 -46.15901227 536.5195035 -25.43573761 536.54112434 C-15.81326025 536.55143073 -6.19081568 536.5654789 3.43164062 536.58837891 C11.81994413 536.60833227 20.20822388 536.62122107 28.59655046 536.62567699 C33.03684461 536.62828106 37.4770708 536.63438854 41.91734314 536.64896011 C46.10006692 536.66257477 50.28269501 536.6667148 54.46543884 536.66371536 C55.99723837 536.66426379 57.52904123 536.66821805 59.06082153 536.67591095 C71.88275993 537.19377593 71.88275993 537.19377593 83.20703125 532.1875 C87.4247729 526.88519622 88.76940248 522.78060026 88.76634216 516.01223755 C88.77016673 515.28588321 88.77399129 514.55952886 88.77793175 513.81116378 C88.78718352 511.38839663 88.77524662 508.96620596 88.76342773 506.54345703 C88.76589681 504.80187748 88.76973631 503.06029941 88.77484131 501.31872559 C88.78317032 497.57335583 88.78237932 493.82813816 88.7746563 490.08276749 C88.763061 484.15714755 88.77524642 478.23172274 88.79127502 472.30612183 C88.82744866 457.58780082 88.8337001 442.86948447 88.83117676 428.15112305 C88.82946486 416.71203126 88.83660696 405.27309911 88.87115532 393.83405197 C88.8879327 387.94699598 88.88616882 382.06032957 88.8703326 376.17327523 C88.86452691 372.50613056 88.87529151 368.83916975 88.89057922 365.17205811 C88.89429869 363.47577883 88.89121695 361.77946842 88.88070869 360.08321762 C88.77961973 342.59558494 88.77961973 342.59558494 94.73560238 335.93858528 C101.83291364 329.30115567 111.25950056 329.91895793 120.39453125 329.4375 C117.71525065 326.59917535 115.09780925 324.46616468 111.76953125 322.4375 C106.59954801 319.21923734 101.51854039 315.88629146 96.45703125 312.5 C95.28442749 311.71616943 95.28442749 311.71616943 94.08813477 310.91650391 C92.55395207 309.89050619 91.02000925 308.86414968 89.48632812 307.83740234 C86.72900114 305.99210438 83.9682036 304.1520378 81.20703125 302.3125 C80.32668213 301.7254126 79.44633301 301.1383252 78.53930664 300.53344727 C76.42569794 299.12475767 74.31126365 297.71730606 72.19604492 296.31103516 C61.26223291 289.03879701 50.38486428 281.68408011 39.51025391 274.32373047 C29.75667867 267.72319024 19.98826827 261.14672089 10.18127441 254.62579346 C7.23539416 252.66660296 4.29151643 250.70441146 1.34765625 248.7421875 C0.74242126 248.33906342 0.13718628 247.93593933 -0.48638916 247.52059937 C-4.23960088 245.01947554 -7.98774154 242.51095142 -11.73242188 239.99707031 C-16.45856799 236.82516087 -21.19301977 233.6659336 -25.93164062 230.51269531 C-27.89077902 229.2059487 -29.84713998 227.89502898 -31.80078125 226.58007812 C-34.67124384 224.64921363 -37.55131447 222.73347877 -40.43359375 220.8203125 C-41.29221008 220.23798859 -42.15082642 219.65566467 -43.03546143 219.05569458 C-61.49413355 206.89244398 -73.21027026 210.90449076 -90.21118164 222.78759766 Z " fill="#FEC511" transform="translate(575.60546875,102.5625)"/>
<path d="M0 0 C20.6665106 -0.77661209 40.27969126 1.19860101 56.9375 14.6875 C63.37169307 20.85760306 68.34872772 29.19321453 70 38 C70 39.32 70 40.64 70 42 C70.66 42.33 71.32 42.66 72 43 C72.68377255 56.21960265 69.50797277 69.55185694 61.3359375 80.16015625 C56.11900476 85.77014556 49.78040379 89.41532538 42.0703125 90.03515625 C36.55782006 89.94154789 31.9593769 88.81691825 27.5 85.5625 C26.345 85.046875 25.19 84.53125 24 84 C21.54663544 84.95056561 19.53033842 86.24846847 17.3203125 87.671875 C11.60398616 90.94384631 5.24471157 90.35016694 -0.9375 88.71875 C-7.5533053 86.41324209 -12.93732508 81.20529848 -16.0078125 74.9453125 C-20.11743468 64.37201273 -19.87768437 54.65534637 -16 44 C-11.98313208 36.76963774 -6.17702168 31.05001593 1.7890625 28.40625 C8.0596817 27.25405142 16.06429746 26.60996205 21.875 29.5625 C25.13076976 31.06015409 25.79961953 31.08502064 29.125 30.5 C33 30 33 30 35.9375 31.3125 C38 33 38 33 39 35 C39.15660883 37.62380313 39.2582908 40.22524852 39.31640625 42.8515625 C39.33718735 43.62559418 39.35796844 44.39962585 39.37937927 45.19711304 C39.44483448 47.67298392 39.50374087 50.14896202 39.5625 52.625 C39.60568907 54.30209448 39.64930348 55.97917807 39.69335938 57.65625 C39.80051171 61.77072308 39.90179045 65.88530414 40 70 C42.95076009 71.20243075 42.95076009 71.20243075 46 70.75 C49.54990896 68.67921977 49.73148768 67.87965302 50.875 64.0625 C53.06558222 54.00156248 52.76083292 45.28221566 48 36 C42.64205156 27.85203178 35.7419783 23.68252301 26.31933594 21.5402832 C13.51613337 18.97088165 1.72307257 19.77443928 -10 26 C-19.18823637 32.35530128 -24.70720804 40.59220072 -26.71875 51.59765625 C-28.10281673 63.41989288 -26.95868329 75.17354613 -19.71875 84.96875 C-12.26156636 93.78178521 -4.10864928 97.65598777 7.375 98.875 C16.70780235 99.34053171 25.31548463 97.74000549 34.0703125 94.61328125 C36.88111071 93.71997089 39.09048885 93.52635865 42 94 C44.94427735 96.06895165 45.84332955 97.50909927 46.9375 100.9375 C47.01480637 104.72551228 46.3858046 106.07546533 44 109 C36.47133301 115.53805292 25.65287121 117.22154264 16 118 C15.01 118.33 14.02 118.66 13 119 C11.07397461 118.88574219 11.07397461 118.88574219 8.90234375 118.546875 C8.10562256 118.42401123 7.30890137 118.30114746 6.48803711 118.17456055 C5.64635986 118.03445557 4.80468262 117.89435059 3.9375 117.75 C3.07713135 117.60796143 2.2167627 117.46592285 1.33032227 117.31958008 C-13.73650448 114.74643008 -26.83479391 109.43478215 -36.35546875 96.8984375 C-43.11523654 87.19850685 -47.20735079 76.88973812 -48 65 C-48.07734375 64.04867187 -48.07734375 64.04867187 -48.15625 63.078125 C-48.87667885 47.10861873 -43.46721238 31.55402002 -32.875 19.625 C-24.66417843 10.9331979 -15.03496818 5.74579329 -3.484375 2.7890625 C-2.66453125 2.52867187 -1.8446875 2.26828125 -1 2 C-0.67 1.34 -0.34 0.68 0 0 Z M2 50 C-0.65743418 55.1940759 -0.30773431 60.43517316 1 66 C2.82367488 68.88258287 3.96935582 70.48467791 7 72 C12.71334866 72.49002712 12.71334866 72.49002712 17.875 70.375 C21.70164369 66.09816294 22.41378998 61.53164394 22.25390625 55.95703125 C21.73344493 51.9454755 19.97403105 49.08225673 17.3125 46.125 C10.83287483 42.97274992 6.13640277 44.40369037 2 50 Z " fill="#FECA10" transform="translate(464,744)"/>
<path d="M0 0 C2.18124924 1.59293868 2.18124924 1.59293868 6.0078125 1.2421875 C7.74761223 0.26453874 7.74761223 0.26453874 9.4453125 -1.0703125 C17.35787453 -6.22301987 26.89567686 -7.55565554 36.15625 -6.3828125 C44.43729757 -4.56778837 49.82366362 -0.87229999 54.671875 6.05859375 C60.11461248 14.95476407 59.16451236 26.73950123 59.17578125 36.859375 C59.18077385 38.44965012 59.18077385 38.44965012 59.18586731 40.072052 C59.19089131 42.29217092 59.19327705 44.51229728 59.19311523 46.73242188 C59.19532019 50.12903035 59.2135739 53.525323 59.23242188 56.921875 C59.23535307 59.08854056 59.2373397 61.25520766 59.23828125 63.421875 C59.24546677 64.43337616 59.25265228 65.44487732 59.26005554 66.48703003 C59.25697891 67.43216461 59.25390228 68.37729919 59.25073242 69.35107422 C59.25215744 70.17727264 59.25358246 71.00347107 59.25505066 71.85470581 C58.96690134 74.63725046 58.23287286 76.73220645 57.0078125 79.2421875 C53.40442023 82.10112894 50.55392292 82.67388889 46.0078125 82.6796875 C44.9971875 82.69902344 43.9865625 82.71835937 42.9453125 82.73828125 C39.21561876 82.10839946 37.69765807 80.87489673 35.0078125 78.2421875 C34.29638672 75.66918945 34.29638672 75.66918945 34.1875 72.66796875 C34.14077148 71.51506348 34.09404297 70.3621582 34.04589844 69.17431641 C33.96441247 60.76141233 34.02249284 52.35153052 34.17919922 43.93969727 C34.22177456 41.51314201 34.24501519 39.08698441 34.265625 36.66015625 C34.28424591 35.93289841 34.30286682 35.20564056 34.322052 34.4563446 C34.35049297 28.70766162 33.42164922 23.00588708 29.53152466 18.55192566 C26.57822726 16.01335807 22.76228264 16.14591903 19.0078125 16.2421875 C15.23815662 17.42893102 13.59553466 18.38320896 11.36694336 21.64038086 C9.44655612 26.72956228 9.60563584 31.41345939 9.63671875 36.80859375 C9.61934352 39.09049635 9.60175906 41.37239736 9.58398438 43.65429688 C9.57389525 47.23790329 9.57032044 50.82140923 9.57202148 54.4050293 C9.56845562 57.87318782 9.54113554 61.34057271 9.51171875 64.80859375 C9.51990128 65.87952774 9.5280838 66.95046173 9.53651428 68.05384827 C9.46223284 75.46540729 9.46223284 75.46540729 7.16381836 79.39428711 C3.07863302 82.89567629 -1.18802819 82.50948242 -6.3203125 82.46875 C-9.57047454 82.19315146 -11.52543386 81.38004066 -13.9921875 79.2421875 C-15.18983023 76.84690204 -15.12919345 75.33439382 -15.14990234 72.65991211 C-15.16016449 71.70809555 -15.17042664 70.75627899 -15.18099976 69.77561951 C-15.18830109 68.74236038 -15.19560242 67.70910126 -15.203125 66.64453125 C-15.2312114 64.45897711 -15.25987596 62.27343035 -15.2890625 60.08789062 C-15.33019656 56.64070989 -15.36708016 53.19366406 -15.39355469 49.74633789 C-15.42131633 46.42044512 -15.46720835 43.0951792 -15.515625 39.76953125 C-15.51887787 38.75044174 -15.52213074 37.73135223 -15.52548218 36.68138123 C-15.62887302 30.60341388 -16.06418144 24.69619205 -18.9921875 19.2421875 C-23.33664295 16.34588386 -27.08234101 15.71771888 -32.12890625 16.58984375 C-35.89346294 17.9078332 -38.25046731 20.75874712 -39.9921875 24.2421875 C-40.08576041 25.88043559 -40.1173234 27.52241204 -40.11816406 29.16333008 C-40.12197083 30.18811966 -40.12577759 31.21290924 -40.12969971 32.26875305 C-40.13072693 33.38018173 -40.13175415 34.49161041 -40.1328125 35.63671875 C-40.15113947 37.97722328 -40.17070967 40.31771835 -40.19140625 42.65820312 C-40.22039592 46.35831649 -40.24218791 50.05782227 -40.24267578 53.75805664 C-40.24600621 57.32232941 -40.28053572 60.88519057 -40.3203125 64.44921875 C-40.3132428 65.55457474 -40.3061731 66.65993073 -40.29888916 67.79878235 C-40.42099421 75.49196262 -40.42099421 75.49196262 -43.40917969 79.41674805 C-48.43477957 82.96839364 -52.95387152 82.75627212 -58.9921875 82.2421875 C-61.54097672 81.06974446 -63.05516128 80.17921372 -64.9921875 78.2421875 C-65.24150963 75.82421477 -65.41635806 73.43752651 -65.54296875 71.01171875 C-65.58480789 70.22626175 -65.62664703 69.44080475 -65.66975403 68.63154602 C-66.20181029 57.36407615 -66.17820787 46.08348763 -66.17749023 34.8059082 C-66.17970887 30.89198422 -66.19802354 26.97832869 -66.21679688 23.06445312 C-66.21972589 20.56510512 -66.22171397 18.06575579 -66.22265625 15.56640625 C-66.22984177 14.40187424 -66.23702728 13.23734222 -66.24443054 12.03752136 C-66.24135391 10.95481461 -66.23827728 9.87210785 -66.23510742 8.7565918 C-66.23653244 7.80938766 -66.23795746 6.86218353 -66.23942566 5.88627625 C-65.84298997 1.64659434 -64.33632175 -1.24161113 -61.9921875 -4.7578125 C-56.69729507 -6.52277664 -51.08191424 -6.65340967 -45.9296875 -4.4453125 C-43.9921875 -2.7578125 -43.9921875 -2.7578125 -42.9921875 0.2421875 C-39.7121163 -0.1678214 -37.32222814 -1.08242917 -34.4921875 -2.6953125 C-22.74505777 -8.74619253 -10.3248365 -7.96269679 0 0 Z " fill="#FED10E" transform="translate(808.9921875,763.7578125)"/>
<path d="M0 0 C2.73273636 3.79851839 2.29648344 7.29404497 2.18847656 11.85839844 C2.18444824 12.66035645 2.18041992 13.46231445 2.17626953 14.28857422 C2.15538896 17.27562437 2.09954315 20.2623476 2.04785156 23.24902344 C1.96535156 29.93152344 1.88285156 36.61402344 1.79785156 43.49902344 C15.98785156 43.49902344 30.17785156 43.49902344 44.79785156 43.49902344 C44.96820285 30.56039951 44.96820285 30.56039951 45.09570312 17.62133789 C45.12508129 15.99329818 45.15590859 14.36528371 45.18847656 12.73730469 C45.18960449 11.89921265 45.19073242 11.06112061 45.19189453 10.19763184 C45.29156674 6.11654115 45.47577471 4.00659453 47.7109375 0.48413086 C51.18087953 -2.8165358 53.4633075 -2.66201845 58.17285156 -2.68847656 C59.31496094 -2.70265625 60.45707031 -2.71683594 61.63378906 -2.73144531 C64.68913875 -2.50889515 66.30166238 -2.21639424 68.79785156 -0.50097656 C71.2478197 3.17397564 71.24320039 6.16046257 71.41455078 10.42993164 C71.45214949 11.22676267 71.48974819 12.02359369 71.52848625 12.84457111 C71.92762251 22.09555125 71.94271935 31.34662951 71.93066406 40.60449219 C71.93134007 42.46771762 71.93231255 44.33094296 71.93356323 46.19416809 C71.93502223 50.05889747 71.93294164 53.92360345 71.92822266 57.78833008 C71.92248206 62.72852244 71.9258429 67.66866097 71.93179512 72.60885143 C71.93541211 76.43934026 71.93425766 80.26981634 71.93166733 84.10030556 C71.93100349 85.92268187 71.93180735 87.74505937 71.93414688 89.56743431 C71.93669704 92.10740608 71.93280156 94.64729057 71.92724609 97.18725586 C71.92927032 97.92862289 71.93129456 98.66998993 71.93338013 99.43382263 C71.88604246 111.16511202 71.88604246 111.16511202 68.86035156 114.87402344 C65.44979 117.56113255 63.29155664 117.68530647 58.98535156 117.74902344 C57.94765625 117.77480469 56.90996094 117.80058594 55.84082031 117.82714844 C52.34824359 117.45054196 50.56364096 116.6421482 47.79785156 114.49902344 C46.04598738 111.6313298 45.53791178 109.43576911 45.47900391 106.09765625 C45.45913422 105.23706604 45.43926453 104.37647583 45.41879272 103.48980713 C45.40724152 102.56987976 45.39569031 101.64995239 45.38378906 100.70214844 C45.36442291 99.7533783 45.34505676 98.80460815 45.32510376 97.8270874 C45.26539498 94.80115711 45.21895724 91.77518859 45.17285156 88.74902344 C45.13466379 86.69562157 45.09561159 84.64223558 45.05566406 82.58886719 C44.95970048 77.55904848 44.8756371 72.52915478 44.79785156 67.49902344 C39.45931333 67.47428684 34.12080853 67.45614604 28.78222656 67.4440918 C26.96646544 67.43906603 25.15070836 67.43224441 23.33496094 67.42358398 C20.72362266 67.41144155 18.11233794 67.40577753 15.50097656 67.40136719 C14.69041809 67.3962059 13.87985962 67.39104462 13.04473877 67.38572693 C9.45580987 67.38537048 6.2504437 67.52856397 2.79785156 68.49902344 C2.78850586 69.77543701 2.77916016 71.05185059 2.76953125 72.36694336 C2.72960817 77.11029746 2.66384253 81.85300456 2.59033203 86.59594727 C2.56213593 88.6472949 2.54091463 90.69875091 2.52685547 92.75024414 C2.50540732 95.70222398 2.45874709 98.65290274 2.40722656 101.60449219 C2.40538361 102.97664131 2.40538361 102.97664131 2.40350342 104.37651062 C2.30779819 108.5530566 2.14972307 110.91797125 -0.05273438 114.55493164 C-4.21128164 118.31623467 -8.90358983 117.82430224 -14.24121094 117.79199219 C-18.38204756 117.3822788 -20.16915023 116.28610287 -23.20214844 113.49902344 C-24.36881169 111.16569694 -24.33522231 109.79178006 -24.34931946 107.19206238 C-24.35647476 106.28781021 -24.36363007 105.38355804 -24.3710022 104.4519043 C-24.3736911 103.45707031 -24.37638 102.46223633 -24.37915039 101.43725586 C-24.38572159 100.39160965 -24.39229279 99.34596344 -24.39906311 98.26863098 C-24.41882567 94.79725072 -24.43046482 91.32591376 -24.44042969 87.85449219 C-24.44450521 86.67105036 -24.44858074 85.48760853 -24.45277977 84.26830482 C-24.47365233 78.00561318 -24.48794938 71.74294353 -24.49731445 65.48022461 C-24.50838618 59.00346509 -24.54279191 52.52704845 -24.58248615 46.05041027 C-24.60859918 41.07733002 -24.61700154 36.10433214 -24.62059593 31.13118935 C-24.625475 28.74333694 -24.63712625 26.35548853 -24.65563393 23.96770287 C-24.67991343 20.62784831 -24.67908053 17.28888991 -24.67211914 13.94897461 C-24.6849292 12.96021332 -24.69773926 11.97145203 -24.7109375 10.95272827 C-24.67795221 6.61706416 -24.61415848 4.17431 -22.31632996 0.40815735 C-16.22772143 -5.08993679 -6.52197628 -4.44535589 0 0 Z " fill="#FED00E" transform="translate(570.2021484375,728.5009765625)"/>
<path d="M0 0 C1.16710913 0.97508477 2.31550751 1.97332241 3.4375 3 C4.365625 3.845625 5.29375 4.69125 6.25 5.5625 C9.48995161 9.17273179 11.2534985 11.55427391 11.875 16.4375 C11.23423956 21.65512075 9.17347372 24.59245374 5.125 27.875 C1.59858808 29.35117243 -0.76639 29.46618895 -4.5625 29 C-8.95797917 26.62644125 -12.05669707 23.50580293 -15.5625 20 C-21.23914078 16.37825181 -29.54436851 16.54511719 -36.046875 17.28125 C-45.16391698 19.40149232 -51.277275 24.39000552 -56.42578125 32.0234375 C-62.00927377 41.73219082 -62.11123516 54.55382134 -59.87109375 65.32421875 C-58.06249032 70.75002904 -55.40496633 75.07122202 -51.734375 79.44140625 C-50.5625 81 -50.5625 81 -50.5625 83 C-49.98628906 83.28746094 -49.41007812 83.57492187 -48.81640625 83.87109375 C-47.40120736 84.57991954 -45.99138481 85.29969411 -44.58984375 86.03515625 C-36.61129968 89.95731904 -28.35843521 91.09462081 -19.6953125 88.796875 C-14.96565988 87.02975204 -10.90999364 84.46999306 -7.5 80.75 C-4.66262779 78.1872122 -2.31895291 78.13180537 1.4375 78 C5.47390543 79.03256883 7.71443853 80.88792975 10.4375 84 C12.06759736 87.26019472 11.97085588 90.47737047 11.4375 94 C8.01269356 102.57801986 0.85514078 107.08237033 -7.25 110.75 C-23.73454686 117.15377134 -40.91692205 115.87909638 -57.01953125 108.94140625 C-72.96277286 100.8720598 -81.35520335 86.62188995 -86.8125 70.25 C-90.77527983 51.88403962 -87.99978569 33.47487596 -78.375 17.3125 C-70.09123778 5.10858478 -58.39520428 -4.35015867 -43.77685547 -7.64697266 C-28.64214602 -10.05984916 -12.75084605 -9.08086084 0 0 Z " fill="#FEC113" transform="translate(162.5625,733)"/>
<path d="M0 0 C2.81251096 3.68387172 2.45717141 8.14814062 2.58984375 12.62109375 C2.61062485 13.28131531 2.63140594 13.94153687 2.65281677 14.62176514 C2.71793897 16.7203989 2.77702252 18.81915247 2.8359375 20.91796875 C2.87915829 22.34506422 2.9227737 23.7721478 2.96679688 25.19921875 C3.07358161 28.68867597 3.17495316 32.17826628 3.2734375 35.66796875 C4.30404297 35.14396484 4.30404297 35.14396484 5.35546875 34.609375 C6.70705078 33.92681641 6.70705078 33.92681641 8.0859375 33.23046875 C8.97925781 32.77800781 9.87257812 32.32554687 10.79296875 31.859375 C19.19339866 27.82452284 29.50524204 27.68116355 38.2734375 30.66796875 C46.14738868 34.34893714 50.70711788 39.77284989 54.2734375 47.66796875 C57.0569442 58.63814907 56.5815956 70.28046499 56.53417969 81.51074219 C56.52338375 84.55814162 56.53416943 87.60496128 56.546875 90.65234375 C56.54555449 92.61328253 56.54299435 94.57422096 56.5390625 96.53515625 C56.54311096 97.43426727 56.54715942 98.3333783 56.55133057 99.25973511 C56.51107525 104.72011738 55.95242182 109.45451091 54.2734375 114.66796875 C50.79899149 117.72017306 47.81081474 118.07769358 43.2734375 118.04296875 C42.2628125 118.05070313 41.2521875 118.0584375 40.2109375 118.06640625 C36.87332364 117.61369799 34.97613813 116.64673171 32.2734375 114.66796875 C31.018766 112.15862576 31.11470192 110.3841952 31.06811523 107.57568359 C31.0381974 105.98426041 31.0381974 105.98426041 31.00767517 104.36068726 C30.99096268 103.21169952 30.97425018 102.06271179 30.95703125 100.87890625 C30.93625015 99.70534576 30.91546906 98.53178528 30.89405823 97.32266235 C30.82851767 93.56282571 30.76965674 89.80291753 30.7109375 86.04296875 C30.66775658 83.49869043 30.62414243 80.95441942 30.58007812 78.41015625 C30.47283168 72.16283668 30.3710737 65.91544549 30.2734375 59.66796875 C29.2834375 59.17296875 29.2834375 59.17296875 28.2734375 58.66796875 C27.9640625 58.02859375 27.6546875 57.38921875 27.3359375 56.73046875 C26.31997828 54.34825382 26.31997828 54.34825382 23.2734375 52.66796875 C17.69157275 51.97526981 12.77865969 51.96726187 7.6484375 54.35546875 C4.62181803 57.30244034 3.46247016 59.89108188 3.01515198 64.0958252 C3.01087692 64.94012085 3.00660187 65.7844165 3.00219727 66.65429688 C2.99201065 67.61879761 2.98182404 68.58329834 2.97132874 69.57702637 C2.96918869 70.60734985 2.96704865 71.63767334 2.96484375 72.69921875 C2.93969187 74.89323192 2.91429373 77.08724227 2.88867188 79.28125 C2.85989568 82.73095013 2.83586891 86.18060161 2.81713867 89.63037109 C2.79549682 92.96607079 2.75606767 96.30121203 2.71484375 99.63671875 C2.71472794 100.66704224 2.71461212 101.69736572 2.7144928 102.75891113 C2.59067551 111.71189688 2.59067551 111.71189688 -0.7265625 115.66796875 C-3.90398438 117.92974648 -6.82938197 117.96596176 -10.6640625 117.98046875 C-11.68371094 117.99722656 -12.70335937 118.01398438 -13.75390625 118.03125 C-17.15950704 117.61505963 -18.98631942 116.70289709 -21.7265625 114.66796875 C-24.14250686 111.04405221 -24.00359642 109.30014553 -24.0612793 104.98217773 C-24.07293121 104.30483582 -24.08458313 103.6274939 -24.09658813 102.92962646 C-24.13272608 100.674463 -24.15454545 98.41941206 -24.17578125 96.1640625 C-24.19709212 94.56827432 -24.21906194 92.97249481 -24.24165344 91.37672424 C-24.28719519 88.00648197 -24.32588837 84.63624984 -24.35961914 81.26586914 C-24.40209002 77.05629045 -24.45910031 72.84707892 -24.52099419 68.63774681 C-24.75660246 52.32644048 -24.85449316 36.01556993 -24.48346901 19.70549202 C-24.4505301 18.21797049 -24.42210023 16.73034145 -24.39844322 15.24264336 C-24.36361266 13.19799395 -24.30697363 11.15375084 -24.24926758 9.10961914 C-24.22109451 7.95716202 -24.19292145 6.8047049 -24.16389465 5.61732483 C-23.68619167 2.395709 -22.96022411 0.99571364 -20.7265625 -1.33203125 C-14.57767845 -4.2241444 -5.52209013 -4.26025505 0 0 Z " fill="#FEC411" transform="translate(203.7265625,728.33203125)"/>
<path d="M0 0 C10.58025163 7.67243413 15.242075 17.04387226 17.3203125 29.70703125 C17.888768 35.2456315 18.1071297 40.47650607 14.734375 45.0859375 C11.4131539 47.33264589 8.76640783 47.64720924 4.86254883 47.63696289 C3.90177933 47.63688736 2.94100983 47.63681183 1.9511261 47.63673401 C0.91666855 47.63157272 -0.117789 47.62641144 -1.18359375 47.62109375 C-2.77534172 47.61897133 -2.77534172 47.61897133 -4.39924622 47.61680603 C-7.79223435 47.61120356 -11.18515677 47.59865064 -14.578125 47.5859375 C-16.87695217 47.58092282 -19.17578038 47.57635986 -21.47460938 47.57226562 C-27.11330372 47.56123333 -32.75195966 47.5444928 -38.390625 47.5234375 C-37.76178993 48.80990493 -37.12964019 50.09475248 -36.49609375 51.37890625 C-36.14442139 52.09457764 -35.79274902 52.81024902 -35.43041992 53.54760742 C-33.14052347 57.89889458 -30.52175966 59.64519351 -26.015625 61.3359375 C-22.04228344 62.53117033 -19.46429234 62.52107032 -15.390625 61.5234375 C-13.70450183 61.36246458 -12.01676318 61.21794019 -10.328125 61.0859375 C-6.62821218 60.74355751 -3.83340642 59.9191597 -0.390625 58.5234375 C3.97853755 57.97729218 5.87320561 58.02221578 9.546875 60.5234375 C11.85129738 63.87532459 12.14160011 65.52548053 12.078125 69.4609375 C11.41555593 72.37624142 10.43682345 74.13687238 8.609375 76.5234375 C6.27931175 77.96167824 4.13582368 79.13935999 1.671875 80.2734375 C0.74084961 80.72783203 0.74084961 80.72783203 -0.20898438 81.19140625 C-10.90360845 86.31662545 -26.46900283 86.71634405 -37.703125 82.9609375 C-50.0497861 77.34162379 -57.61678738 67.94302301 -62.390625 55.5234375 C-65.99196707 43.09080975 -64.34540341 27.86301554 -58.390625 16.5234375 C-56.3267883 13.20953344 -54.08409998 10.34517319 -51.390625 7.5234375 C-50.85695313 6.96140625 -50.32328125 6.399375 -49.7734375 5.8203125 C-37.39876069 -5.90306553 -14.70498095 -9.08248823 0 0 Z M-35.421875 21.76953125 C-35.7415625 22.34832031 -36.06125 22.92710937 -36.390625 23.5234375 C-35.6887674 26.3743663 -35.6887674 26.3743663 -34.390625 27.5234375 C-32.3197778 27.681864 -30.24384471 27.77468172 -28.16796875 27.83984375 C-26.90791016 27.88173828 -25.64785156 27.92363281 -24.34960938 27.96679688 C-23.00911764 28.00661346 -21.6686228 28.04632564 -20.328125 28.0859375 C-18.98370977 28.12911792 -17.6393084 28.17273206 -16.29492188 28.21679688 C-12.9936016 28.32329108 -9.69220264 28.4253021 -6.390625 28.5234375 C-7.09999177 23.06207611 -8.39003319 20.43512727 -12.390625 16.5234375 C-21.27324058 12.45223869 -29.21484419 14.43826782 -35.421875 21.76953125 Z M-37.390625 26.5234375 C-36.390625 28.5234375 -36.390625 28.5234375 -36.390625 28.5234375 Z " fill="#FECB0F" transform="translate(330.390625,762.4765625)"/>
<path d="M0 0 C9.07021602 6.12069089 12.93130915 15.30543203 15.390625 25.58984375 C16.80584047 39.74199841 16.80584047 39.74199841 13.703125 44.71484375 C7.74440574 47.03490671 2.07030402 46.9760502 -4.26171875 46.91015625 C-5.29502823 46.90732635 -6.32833771 46.90449646 -7.39295959 46.90158081 C-10.67355222 46.89044022 -13.95386573 46.86534679 -17.234375 46.83984375 C-19.46679292 46.82980605 -21.69921514 46.82068158 -23.93164062 46.8125 C-29.386813 46.79052096 -34.84182405 46.75710459 -40.296875 46.71484375 C-39.85187337 47.98938132 -39.3983805 49.26095594 -38.94140625 50.53125 C-38.56399292 51.59388062 -38.56399292 51.59388062 -38.17895508 52.67797852 C-36.81065614 55.83760155 -35.00631309 57.63550754 -32.296875 59.71484375 C-27.68196446 60.77411415 -23.07620118 60.92914402 -18.359375 60.96484375 C-17.68197266 60.98546875 -17.00457031 61.00609375 -16.30664062 61.02734375 C-11.28042426 61.06589575 -7.81474163 59.7913454 -3.296875 57.71484375 C0.98290992 56.97603173 4.47510718 56.94733261 8.203125 59.27734375 C10.20445912 62.52951169 10.63623596 64.90216874 10.703125 68.71484375 C8.61679395 74.41748196 3.05682183 77.93852127 -2.140625 80.69140625 C-14.01684797 85.67338114 -27.58923451 85.92667836 -39.6328125 81.484375 C-49.92725795 76.64831939 -57.94075855 70.09811372 -62.23046875 59.3828125 C-66.84628697 46.06540394 -67.52959358 30.60480044 -61.296875 17.71484375 C-55.1471219 6.44325018 -47.30277585 0.33498725 -35.52734375 -4.3984375 C-23.85308823 -7.6028583 -10.47173478 -5.85918494 0 0 Z M-36.734375 19.08984375 C-38.63170221 21.94584987 -38.63170221 21.94584987 -39.296875 26.71484375 C-29.066875 27.04484375 -18.836875 27.37484375 -8.296875 27.71484375 C-9.26032025 20.247973 -9.26032025 20.247973 -14.296875 15.71484375 C-21.72250346 11.61120697 -30.79203746 13.29987384 -36.734375 19.08984375 Z M-23.296875 61.71484375 C-23.296875 62.04484375 -23.296875 62.37484375 -23.296875 62.71484375 C-21.316875 62.71484375 -19.336875 62.71484375 -17.296875 62.71484375 C-17.296875 62.38484375 -17.296875 62.05484375 -17.296875 61.71484375 C-19.276875 61.71484375 -21.256875 61.71484375 -23.296875 61.71484375 Z " fill="#FECF0E" transform="translate(939.296875,763.28515625)"/>
<path d="M0 0 C8.08635664 8.68806376 12.54178035 19.91002073 12.375 31.75 C12.36376099 32.80598389 12.36376099 32.80598389 12.35229492 33.88330078 C12.08050136 47.04782703 7.66772065 57.01529759 -1.41796875 66.61328125 C-5.22755926 70.12004262 -9.23003848 72.61951388 -13.875 74.875 C-14.535 75.21402344 -15.195 75.55304688 -15.875 75.90234375 C-26.351166 80.34243754 -40.62644298 78.92753803 -51.0390625 75.203125 C-62.04970363 70.0466264 -69.3298815 60.93764691 -73.875 49.875 C-78.14832642 37.89640108 -76.70198147 24.40960507 -71.875 12.875 C-70.4239412 10.01057223 -68.79493429 7.4447582 -66.875 4.875 C-66.1325 3.84375 -65.39 2.8125 -64.625 1.75 C-57.0831387 -6.13467318 -46.47952771 -11.38550344 -35.5078125 -12.15234375 C-21.8869624 -12.01088092 -10.34211368 -9.48170489 0 0 Z M-47.875 17.875 C-51.68563147 26.44129953 -52.11016474 34.82445976 -49.1875 43.6875 C-46.96926509 49.1980625 -44.55860429 52.62265133 -39.0625 55.1875 C-32.08595167 56.69224572 -27.17579958 56.32260732 -20.875 52.875 C-16.4150376 49.32730264 -14.05714103 45.41914982 -12.875 39.875 C-12.03410037 31.52359952 -12.42290168 22.39843917 -17.6875 15.5 C-18.409375 14.96375 -19.13125 14.4275 -19.875 13.875 C-20.720625 13.1325 -21.56625 12.39 -22.4375 11.625 C-31.7226689 6.89800492 -41.5688917 9.86453811 -47.875 17.875 Z " fill="#FED20D" transform="translate(724.875,769.125)"/>
<path d="M0 0 C2.86706113 2.95394177 3.19663725 5.52317126 3.375 9.5 C3.24497692 13.40069232 2.51496205 15.90466209 0 19 C-2.30187138 20.15093569 -3.47889873 20.07776855 -6.02734375 19.9921875 C-7.21553711 19.96705078 -7.21553711 19.96705078 -8.42773438 19.94140625 C-10.09723325 19.89723274 -11.76654281 19.84518298 -13.43554688 19.78515625 C-14.22896484 19.77097656 -15.02238281 19.75679687 -15.83984375 19.7421875 C-16.56550537 19.7201123 -17.29116699 19.69803711 -18.03881836 19.67529297 C-20.64655075 20.10704749 -21.461482 20.86920381 -23 23 C-23.57323807 25.27161255 -23.57323807 25.27161255 -23.6875 27.6875 C-23.75324219 28.49574219 -23.81898438 29.30398438 -23.88671875 30.13671875 C-23.92410156 30.75160156 -23.96148437 31.36648438 -24 32 C-22.68644531 32.01417969 -21.37289062 32.02835938 -20.01953125 32.04296875 C-18.28381949 32.08987988 -16.54814348 32.13812721 -14.8125 32.1875 C-13.94818359 32.19330078 -13.08386719 32.19910156 -12.19335938 32.20507812 C-7.69012459 32.36036208 -5.60122072 32.53332356 -1.9453125 35.37109375 C0.34633575 38.46804008 0.92311376 40.15568795 1 44 C-0.05833764 50.24419205 -0.05833764 50.24419205 -3.078125 52.66796875 C-6.75496561 54.3441755 -10.15328744 54.52371771 -14.125 54.625 C-19.64037965 54.77543656 -19.64037965 54.77543656 -25 56 C-24.99111755 56.7052179 -24.98223511 57.41043579 -24.9730835 58.13702393 C-24.89289077 64.78739708 -24.83201219 71.43763505 -24.79275131 78.08838272 C-24.77188799 81.5075368 -24.74359495 84.92629094 -24.69824219 88.34521484 C-24.64641382 92.27696931 -24.62704422 96.20856257 -24.609375 100.140625 C-24.58872986 101.36678528 -24.56808472 102.59294556 -24.54681396 103.85626221 C-24.54651184 104.99714294 -24.54620972 106.13802368 -24.54589844 107.31347656 C-24.53701599 108.31719299 -24.52813354 109.32090942 -24.51898193 110.3550415 C-25.13115155 113.72115879 -26.38450752 114.87043436 -29 117 C-31.67655801 118.33827901 -33.82434052 118.20578556 -36.8125 118.25 C-38.36904297 118.28867187 -38.36904297 118.28867187 -39.95703125 118.328125 C-43.61892878 117.93326057 -45.26534156 117.50080457 -48 115 C-50.50490571 108.26512589 -50.2636119 101.03862915 -50.1953125 93.96484375 C-50.1924826 92.84557999 -50.18965271 91.72631622 -50.18673706 90.57313538 C-50.17561732 87.02781095 -50.1505279 83.48274699 -50.125 79.9375 C-50.1149596 77.52148805 -50.10583561 75.1054721 -50.09765625 72.68945312 C-50.0757049 66.79288114 -50.04230979 60.89645919 -50 55 C-51.89105469 55.03867187 -51.89105469 55.03867187 -53.8203125 55.078125 C-57.70912639 55.15765085 -59.9187825 54.53747323 -63 52 C-65.73142933 48.48816229 -65.4144653 44.25461317 -65 40 C-63.89804378 36.10077031 -63.44935605 35.2995707 -60 33 C-53.1292517 31.43537415 -53.1292517 31.43537415 -50 33 C-49.96261719 32.09378906 -49.92523438 31.18757812 -49.88671875 30.25390625 C-49.35493554 20.40027623 -48.71664296 11.93772108 -41.7265625 4.5 C-31.49028024 -4.3930597 -11.77959257 -6.6428296 0 0 Z " fill="#FECB10" transform="translate(414,728)"/>
<path d="M0 0 C-0.33 0.66 -0.66 1.32 -1 2 C-3.75031587 1.85888117 -6.50015418 1.71228835 -9.25 1.5625 C-10.41595703 1.50352539 -10.41595703 1.50352539 -11.60546875 1.44335938 C-12.35957031 1.40146484 -13.11367188 1.35957031 -13.890625 1.31640625 C-14.58188477 1.27974854 -15.27314453 1.24309082 -15.98535156 1.20532227 C-18 1 -18 1 -20.03417969 0.41772461 C-23.19917116 -0.25481642 -25.94356034 1.11085392 -29 2 C-29.99 1.67 -30.98 1.34 -32 1 C-32.33 1.99 -32.66 2.98 -33 4 C-35.046875 4.73828125 -35.046875 4.73828125 -37.75 5.3125 C-47.06450703 7.63504679 -55.37038448 10.93395212 -62 18 C-63.97292785 19.90436272 -65.98594465 21.76429912 -68 23.625 C-68.50789063 24.10195312 -69.01578125 24.57890625 -69.5390625 25.0703125 C-72.5095041 27.81225859 -75.45387995 30.0574563 -79 32 C-72.31222408 16.93526765 -55.63731103 7.81071247 -41 2 C-28.04358575 -2.36696986 -13.1978764 -4.30951066 0 0 Z " fill="#FCAA12" transform="translate(431,113)"/>
<path d="M0 0 C0 0.66 0 1.32 0 2 C-0.61746094 2.18175781 -1.23492187 2.36351563 -1.87109375 2.55078125 C-6.8663686 4.03339707 -11.832827 5.57074962 -16.765625 7.25 C-18.31149449 7.76889325 -19.86422229 8.26763013 -21.421875 8.75 C-25.50907217 10.03225794 -28.70428987 11.1751056 -32 14 C-32.763125 14.45117188 -33.52625 14.90234375 -34.3125 15.3671875 C-42.10345743 20.1006471 -54.03777545 28.11332635 -57 37 C-60.76624671 38.25541557 -62.37188934 37.37061958 -66 36 C-63.50935112 35.31292445 -61.62113708 35 -59 35 C-58.74734375 34.43539062 -58.4946875 33.87078125 -58.234375 33.2890625 C-49.30730564 16.73443387 -28.14497337 6.28162687 -11 1 C-7.24923053 0.13530165 -3.85315892 -0.08960835 0 0 Z " fill="#FDAE11" transform="translate(499,79)"/>
<path d="M0 0 C2.12281305 4.24562611 2.19951284 7.05719439 2.0625 11.625 C1.96907461 17.03268113 2.06838676 22.2303124 2.87890625 27.59375 C3 30 3 30 2.51586914 33.2890625 C1.72082208 39.43254107 1.85728883 45.59679728 1.8671875 51.78125 C1.8665118 53.12154152 1.86553957 54.46183292 1.86428833 55.80212402 C1.86281981 58.60605033 1.86493587 61.40994463 1.86962891 64.21386719 C1.87528212 67.75944089 1.87199545 71.30493868 1.86616135 74.85050964 C1.80290916 94.15069903 1.80290916 94.15069903 2.88330078 113.41210938 C3 116 3 116 2 118 C1.84932786 119.4465242 1.75138964 120.8987934 1.68359375 122.3515625 C1.62075195 123.62773438 1.62075195 123.62773438 1.55664062 124.9296875 C1.51732422 125.81914063 1.47800781 126.70859375 1.4375 127.625 C1.39431641 128.5221875 1.35113281 129.419375 1.30664062 130.34375 C1.20043139 132.56234283 1.09838806 134.7810488 1 137 C0.67 137 0.34 137 0 137 C0 91.79 0 46.58 0 0 Z " fill="#FED40C" transform="translate(664,484)"/>
<path d="M0 0 C0.33 0.66 0.66 1.32 1 2 C-0.07421875 3.9609375 -0.07421875 3.9609375 -1.6875 6.375 C-7.01888462 15.00440394 -9.36022547 23.49976601 -9.82421875 33.6015625 C-10 36 -10 36 -11 38 C-10.979375 39.216875 -10.95875 40.43375 -10.9375 41.6875 C-10.86947707 45.8217823 -11.69654389 49.08963168 -13 53 C-13.33 53 -13.66 53 -14 53 C-16.24214972 35.03250289 -13.22484801 17.21457383 -3 2 C-2.01 1.34 -1.02 0.68 0 0 Z " fill="#FBA713" transform="translate(352,146)"/>
<path d="M0 0 C0.66 0.33 1.32 0.66 2 1 C-1.00026919 5.63677965 -4.66200881 7.72184425 -9.3359375 10.3828125 C-12.7718706 12.46855488 -15.81049024 14.91530519 -18.89453125 17.484375 C-21.17046612 19.1227103 -23.40317493 19.97147027 -26 21 C-26.78375 21.78375 -27.5675 22.5675 -28.375 23.375 C-32.32360665 27.32360665 -36.98068144 29.59072709 -42 32 C-42.33 31.01 -42.66 30.02 -43 29 C-42.37246826 28.58339111 -41.74493652 28.16678223 -41.09838867 27.73754883 C-27.32938987 18.59124149 -13.61130864 9.37971269 0 0 Z " fill="#FDB211" transform="translate(370,371)"/>
<path d="M0 0 C-0.19921875 1.8046875 -0.19921875 1.8046875 -1 4 C-3.08203125 5.5703125 -3.08203125 5.5703125 -5.8125 7.125 C-10.27821874 9.84529403 -14.44230563 12.71505082 -18.5 16 C-19.4796875 16.78375 -20.459375 17.5675 -21.46875 18.375 C-26.10011284 23.17789479 -27.33698746 28.50247716 -28 35 C-28.33 35 -28.66 35 -29 35 C-30.19938188 28.8940559 -30.42056845 24.38101365 -27 19 C-21.96584718 13.30427473 -8.21265092 0 0 0 Z " fill="#FAAC12" transform="translate(311,412)"/>
<path d="M0 0 C0.66 0 1.32 0 2 0 C2.226875 0.639375 2.45375 1.27875 2.6875 1.9375 C3.85250896 4.27193661 3.85250896 4.27193661 6.625 4.75 C7.40875 4.8325 8.1925 4.915 9 5 C9 5.66 9 6.32 9 7 C10.20160767 6.94670532 10.20160767 6.94670532 11.42749023 6.89233398 C15.09722525 6.7336098 18.76731651 6.58547654 22.4375 6.4375 C23.69755859 6.38142578 24.95761719 6.32535156 26.25585938 6.26757812 C32.95044301 6.00538817 39.38784701 5.81900583 46 7 C46.495 7.99 46.495 7.99 47 9 C41.86880396 10.71039868 36.39447638 10.22547877 31.0234375 10.24023438 C28.90323618 10.24987165 26.7840336 10.28087339 24.6640625 10.3125 C10.3382496 10.42580388 10.3382496 10.42580388 4 7 C1.4375 4.4375 1.4375 4.4375 0 2 C0 1.34 0 0.68 0 0 Z " fill="#FCAE0F" transform="translate(283,447)"/>
<path d="M0 0 C-1 3 -1 3 -3.15234375 4.1328125 C-15.19239709 8.42197596 -29.52121561 9.7756322 -42 6 C-41.67 5.01 -41.34 4.02 -41 3 C-40.10861328 3.10828125 -40.10861328 3.10828125 -39.19921875 3.21875 C-25.19884126 4.7864439 -13.24269195 0 0 0 Z " fill="#FEB411" transform="translate(491,222)"/>
<path d="M0 0 C1.921875 1.60546875 1.921875 1.60546875 3 3 C1.10353002 2.88506243 -0.79218332 2.75760358 -2.6875 2.625 C-3.74324219 2.55539063 -4.79898438 2.48578125 -5.88671875 2.4140625 C-9 2 -9 2 -11.36328125 0.97265625 C-14.27235833 -0.10046996 -16.22157296 -0.15663316 -19.30078125 0.0234375 C-20.27724609 0.075 -21.25371094 0.1265625 -22.25976562 0.1796875 C-23.26716797 0.24414062 -24.27457031 0.30859375 -25.3125 0.375 C-26.85260742 0.46007812 -26.85260742 0.46007812 -28.42382812 0.546875 C-30.94997226 0.68786909 -33.47505001 0.83923182 -36 1 C-36 0.34 -36 -0.32 -36 -1 C-24.88383798 -5.2468138 -11.21729303 -3.49461821 0 0 Z " fill="#FDB010" transform="translate(631,114)"/>
<path d="M0 0 C0.89589844 0.00322266 1.79179687 0.00644531 2.71484375 0.00976562 C4.12056641 0.02233398 4.12056641 0.02233398 5.5546875 0.03515625 C6.49957031 0.03966797 7.44445312 0.04417969 8.41796875 0.04882812 C10.75527137 0.06063268 13.09244811 0.07709866 15.4296875 0.09765625 C15.4296875 0.75765625 15.4296875 1.41765625 15.4296875 2.09765625 C14.85114014 2.14253174 14.27259277 2.18740723 13.67651367 2.23364258 C0.46407293 3.28921813 -11.58446846 4.48672286 -23.6953125 10.23046875 C-25.5703125 11.09765625 -25.5703125 11.09765625 -28.5703125 12.09765625 C-27.5500721 9.03693504 -26.97635343 8.09899444 -24.5703125 6.09765625 C-19.46795359 3.79237361 -13.88588004 2.62671216 -8.41796875 1.52734375 C-1.8013661 -0.01140105 -1.8013661 -0.01140105 0 0 Z " fill="#FEB210" transform="translate(505.5703125,100.90234375)"/>
<path d="M0 0 C0 0.33 0 0.66 0 1 C-1.485 1.12375 -1.485 1.12375 -3 1.25 C-6.72741316 1.78035338 -9.53719254 3.12541575 -12.828125 4.8984375 C-15.19011286 6.09642415 -17.5815741 7.01279126 -20.0625 7.9375 C-23.4064334 9.22362823 -26.09070609 10.63836625 -28.9375 12.8125 C-29.948125 13.534375 -30.95875 14.25625 -32 15 C-32.99 14.67 -33.98 14.34 -35 14 C-25.19670504 4.64230936 -13.5647399 -0.484455 0 0 Z " fill="#FBB60E" transform="translate(129,725)"/>
<path d="M0 0 C0.66 0 1.32 0 2 0 C-0.83594566 10.06014407 -8.95148214 19.4376593 -17 26 C-17.66 26 -18.32 26 -19 26 C-17.34838574 22.10556865 -14.72706947 19.11258803 -12 15.9375 C-9.52334012 13.03273177 -7.12211767 10.18317651 -5 7 C-4.34 7 -3.68 7 -3 7 C-2.690625 6.030625 -2.38125 5.06125 -2.0625 4.0625 C-1 1 -1 1 0 0 Z " fill="#FCB70E" transform="translate(676,224)"/>
<path d="M0 0 C0.66 0 1.32 0 2 0 C2 7.92 2 15.84 2 24 C1.01 23.67 0.02 23.34 -1 23 C-1.02887512 19.35418313 -1.04675585 15.70839537 -1.0625 12.0625 C-1.07087891 11.02158203 -1.07925781 9.98066406 -1.08789062 8.90820312 C-1.09272461 7.42416992 -1.09272461 7.42416992 -1.09765625 5.91015625 C-1.10289307 4.99371338 -1.10812988 4.07727051 -1.11352539 3.13305664 C-1 1 -1 1 0 0 Z " fill="#FECF0A" transform="translate(688,520)"/>
<path d="M0 0 C0.33 0 0.66 0 1 0 C2.09002406 30.58735071 2.09002406 30.58735071 2.1875 41.25 C2.20167969 42.51328125 2.21585938 43.7765625 2.23046875 45.078125 C2 48 2 48 0 51 C-1.68079691 38.60412276 -0.96664372 26.15445453 -0.5 13.6875 C-0.45160953 12.34961708 -0.40343145 11.01172645 -0.35546875 9.67382812 C-0.23905392 6.44913725 -0.12053154 3.22453917 0 0 Z " fill="#FEB70A" transform="translate(607,269)"/>
<path d="M0 0 C0 0.99 0 1.98 0 3 C-1.670625 3.061875 -1.670625 3.061875 -3.375 3.125 C-8.23098117 3.69426245 -11.60441231 5.93608323 -15.60546875 8.625 C-18.11036656 10.06337525 -20.15733087 10.59606833 -23 11 C-23 10.34 -23 9.68 -23 9 C-20.6968731 7.33862981 -18.42104218 5.84508254 -16 4.375 C-15.35160156 3.95476562 -14.70320313 3.53453125 -14.03515625 3.1015625 C-9.11491035 0.10069966 -5.7426789 -0.44864679 0 0 Z " fill="#FEB60F" transform="translate(516,211)"/>
<path d="M0 0 C-0.99 0.495 -0.99 0.495 -2 1 C-2 1.66 -2 2.32 -2 3 C-7.26746661 4.56093269 -12.67878309 4.18431508 -18.125 4.1875 C-19.23488281 4.19974609 -20.34476562 4.21199219 -21.48828125 4.22460938 C-23.07576172 4.22750977 -23.07576172 4.22750977 -24.6953125 4.23046875 C-26.1496167 4.23663208 -26.1496167 4.23663208 -27.63330078 4.24291992 C-30 4 -30 4 -32 2 C-29.98177083 2.03255208 -27.96354167 2.06510417 -25.9453125 2.09765625 C-23.91814596 2.12649242 -23.91814596 2.12649242 -22 1 C-18.68484019 0.92937076 -15.38160534 1.00323387 -12.06640625 1.0625 C-7.90756094 0.97773373 -4.258229 -0.09462731 0 0 Z " fill="#FEB40F" transform="translate(486,248)"/>
<path d="M0 0 C3.3876276 1.97261855 6.54132916 4.10257321 9.6875 6.4375 C14.5208224 9.86806868 19.41059597 12.08533181 25 14 C25 14.66 25 15.32 25 16 C18.00171647 14.9065182 12.35072384 12.6647336 7 8 C5.12954594 6.73076331 3.25044142 5.47843206 1.35546875 4.24609375 C0.90816406 3.83488281 0.46085937 3.42367187 0 3 C0 2.01 0 1.02 0 0 Z " fill="#FEB310" transform="translate(424,210)"/>
<path d="M0 0 C0.33 0 0.66 0 1 0 C1.32419011 4.12081656 0.67311164 5.98423288 -1.8125 9.25 C-4.56318197 13.10482896 -6.0772721 16.58376383 -7.26171875 21.15234375 C-8 23 -8 23 -11 25 C-8.94029081 15.65903813 -5.29474839 7.94212258 0 0 Z " fill="#FBB40E" transform="translate(87,746)"/>
<path d="M0 0 C0 0.99 0 1.98 0 3 C-6.14467555 7.83515453 -14.11649535 12 -22 12 C-22 11.34 -22 10.68 -22 10 C-20.57107422 9.52820313 -20.57107422 9.52820313 -19.11328125 9.046875 C-17.84617149 8.61511908 -16.57925447 8.18279723 -15.3125 7.75 C-14.07113281 7.33234375 -12.82976563 6.9146875 -11.55078125 6.484375 C-8.09147616 5.03824086 -5.83557193 3.40353208 -3 1 C-2.01 0.67 -1.02 0.34 0 0 Z " fill="#FDB80C" transform="translate(650,253)"/>
<path d="M0 0 C1.98 0.99 1.98 0.99 4 2 C3.979375 2.928125 3.95875 3.85625 3.9375 4.8125 C3.84230396 8.02286011 3.84230396 8.02286011 5 11 C5.144375 11.804375 5.28875 12.60875 5.4375 13.4375 C5.99468411 15.97578319 6.76173931 17.7298554 8 20 C11 25.76923077 11 25.76923077 11 28 C8 27 8 27 6.71875 24.8046875 C3.31618146 16.6254362 1.4625756 8.70410844 0 0 Z " fill="#FAA711" transform="translate(338,200)"/>
<path d="M0 0 C0.99 0 1.98 0 3 0 C3.06759749 2.90669219 3.10985491 5.53616817 2.4375 8.375 C2.00722304 10.95666178 2.18806385 12.52075316 2.625 15.0625 C3 19 3 19 1.5234375 21.24609375 C0.76933594 22.11427734 0.76933594 22.11427734 0 23 C-0.19667089 20.47958689 -0.38254317 17.95911728 -0.5625 15.4375 C-0.61857422 14.73302734 -0.67464844 14.02855469 -0.73242188 13.30273438 C-1.05157754 8.68561569 -0.80878035 4.5591248 0 0 Z " fill="#FBB511" transform="translate(75,776)"/>
<path d="M0 0 C0.33 0.66 0.66 1.32 1 2 C15.19 2 29.38 2 44 2 C44 2.33 44 2.66 44 3 C42.3125769 3.03758423 42.3125769 3.03758423 40.59106445 3.07592773 C36.4070345 3.17028435 32.22315964 3.27043553 28.03930664 3.37231445 C26.23042435 3.4155566 24.42150405 3.45723904 22.61254883 3.49731445 C20.00850995 3.5552774 17.40466045 3.61889613 14.80078125 3.68359375 C13.99538406 3.70030624 13.18998688 3.71701874 12.36018372 3.73423767 C9.14046992 3.81868925 6.23071842 3.9491422 3.07495117 4.64477539 C2.39021729 4.76199951 1.7054834 4.87922363 1 5 C0.34 4.34 -0.32 3.68 -1 3 C-0.67 2.01 -0.34 1.02 0 0 Z " fill="#FDCF09" transform="translate(487,637)"/>
<path d="M0 0 C0.66 0.66 1.32 1.32 2 2 C-2.77047491 5.39212048 -7.55419889 8.77174694 -12.4375 12 C-13.05496094 12.4125 -13.67242187 12.825 -14.30859375 13.25 C-16 14 -16 14 -19 13 C-16.61080266 10.1891796 -13.81000992 8.71927476 -10.62890625 6.97265625 C-8.9073857 6.03477657 -8.9073857 6.03477657 -7.4375 4.4375 C-5.29750169 2.29750169 -2.7185404 1.26865219 0 0 Z " fill="#FEB50F" transform="translate(362,405)"/>
<path d="M0 0 C0.66 0.33 1.32 0.66 2 1 C2.05425226 3.39614126 2.09379027 5.79103853 2.125 8.1875 C2.15013672 9.19780273 2.15013672 9.19780273 2.17578125 10.22851562 C2.21538674 14.28807807 1.80020002 17.34998815 0 21 C-0.66 21 -1.32 21 -2 21 C-1.01 10.605 -1.01 10.605 0 0 Z " fill="#FDB60E" transform="translate(662,184)"/>
<path d="M0 0 C0.66 0.33 1.32 0.66 2 1 C0.41391688 3.84382702 -1.19672413 6.67295403 -2.8125 9.5 C-3.26431641 10.31082031 -3.71613281 11.12164063 -4.18164062 11.95703125 C-4.84389648 13.10751953 -4.84389648 13.10751953 -5.51953125 14.28125 C-5.92276611 14.99345703 -6.32600098 15.70566406 -6.74145508 16.43945312 C-7.1567749 16.95443359 -7.57209473 17.46941406 -8 18 C-8.99 18 -9.98 18 -11 18 C-9.91658882 14.65127454 -8.7295519 12.67678154 -6.4375 9.9375 C-4.17836402 7.21495152 -3.71865902 6.23396557 -3 3 C-2.01 2.67 -1.02 2.34 0 2 C0 1.34 0 0.68 0 0 Z " fill="#FECF09" transform="translate(506,602)"/>
<path d="M0 0 C2 1 2 1 2 1 Z M-1 1 C-0.34 1.33 0.32 1.66 1 2 C1 2.66 1 3.32 1 4 C-0.72421427 5.21485385 -2.50634884 6.34818704 -4.3125 7.4375 C-7.55561502 9.40032647 -10.45993428 11.16518263 -13 14 C-13 10 -13 10 -11.13671875 8.078125 C-10.32847656 7.47484375 -9.52023437 6.8715625 -8.6875 6.25 C-7.88699219 5.63640625 -7.08648437 5.0228125 -6.26171875 4.390625 C-4 3 -4 3 -1 3 C-1 2.34 -1 1.68 -1 1 Z " fill="#FDB40F" transform="translate(338,420)"/>
<path d="M0 0 C0 0.66 0 1.32 0 2 C-1.85625 2.4021875 -1.85625 2.4021875 -3.75 2.8125 C-7.11971036 3.68171857 -9.6142247 4.33894293 -12 7 C-13.28842537 10.59067962 -13.28842537 10.59067962 -14 14 C-14.33 14 -14.66 14 -15 14 C-15.35502959 6.89940828 -15.35502959 6.89940828 -14.0625 3.625 C-10.12150573 0.51997422 -4.91436972 0 0 0 Z " fill="#FBB70D" transform="translate(195,725)"/>
<path d="M0 0 C7.41216681 0.35865323 12.56479472 2.35920537 19 6 C18.34 6.66 17.68 7.32 17 8 C8.585 4.535 8.585 4.535 0 1 C0 0.67 0 0.34 0 0 Z " fill="#FCB80D" transform="translate(142,726)"/>
<path d="M0 0 C5.94 0.33 11.88 0.66 18 1 C18.33 1.66 18.66 2.32 19 3 C16.58303128 3.05411124 14.16728213 3.09372278 11.75 3.125 C11.06808594 3.14175781 10.38617187 3.15851563 9.68359375 3.17578125 C5.9391765 3.21213482 3.17647273 3.07944349 0 1 C0 0.67 0 0.34 0 0 Z " fill="#FEB60F" transform="translate(546,226)"/>
<path d="M0 0 C-0.57344937 2.86724686 -0.8614515 3.8614515 -3 6 C-3.40047444 8.32275177 -3.7397104 10.65739357 -4 13 C-4.99 13 -5.98 13 -7 13 C-6.11864407 0 -6.11864407 0 0 0 Z " fill="#FEB211" transform="translate(413,211)"/>
<path d="M0 0 C0.66 0.33 1.32 0.66 2 1 C0.12324226 6.80088755 -2.99071997 10.86267168 -8.3125 13.875 C-9.6428125 14.431875 -9.6428125 14.431875 -11 15 C-11 14.34 -11 13.68 -11 13 C-10.34 13 -9.68 13 -9 13 C-8.6596875 12.1646875 -8.6596875 12.1646875 -8.3125 11.3125 C-6.64524348 8.37495279 -4.38188562 6.38188562 -2 4 C-0.70480005 1.83379456 -0.70480005 1.83379456 0 0 Z " fill="#FDB20F" transform="translate(457,128)"/>
<path d="M0 0 C-1.1955551 3.58666531 -2.38153618 4.29123058 -5.375 6.5 C-8.11169948 8.53246736 -10.65608028 10.51998171 -13 13 C-13.33 12.01 -13.66 11.02 -14 10 C-13.01 9.34 -12.02 8.68 -11 8 C-10.67 7.01 -10.34 6.02 -10 5 C-7.625 3.4375 -7.625 3.4375 -5 2 C-2 0 -2 0 0 0 Z " fill="#FEB30F" transform="translate(475,113)"/>
<path d="M0 0 C1.98626514 0.7309935 3.96391349 1.48543673 5.9375 2.25 C7.03964844 2.66765625 8.14179688 3.0853125 9.27734375 3.515625 C12 5 12 5 12.87890625 7.171875 C12.91886719 7.77515625 12.95882813 8.3784375 13 9 C8.23736331 7.09494532 4.10174023 5.10131578 0 2 C0 1.34 0 0.68 0 0 Z " fill="#FDAF10" transform="translate(374,254)"/>
<path d="M0 0 C5.03985731 0.44469329 7.37634988 2.71343362 11 6 C10.67 6.99 10.34 7.98 10 9 C8.3278148 7.88321917 6.66237197 6.75633648 5 5.625 C3.6078125 4.68527344 3.6078125 4.68527344 2.1875 3.7265625 C1.465625 3.15679687 0.74375 2.58703125 0 2 C0 1.34 0 0.68 0 0 Z " fill="#FEB10F" transform="translate(563,95)"/>
<path d="M0 0 C0.99 0 1.98 0 3 0 C4.59138085 4.17737474 5.21278058 7.53160785 5 12 C1.94063363 8.24532309 0 4.91886939 0 0 Z " fill="#FAB40E" transform="translate(78,807)"/>
<path d="M0 0 C0.66 0.66 1.32 1.32 2 2 C0.57140593 3.03325986 -0.86822383 4.05127634 -2.3125 5.0625 C-3.51326172 5.91521484 -3.51326172 5.91521484 -4.73828125 6.78515625 C-5.48464844 7.18605469 -6.23101562 7.58695312 -7 8 C-7.99 7.67 -8.98 7.34 -10 7 C-8.70982586 6.01886757 -7.41780894 5.04015801 -6.125 4.0625 C-5.04605469 3.24458984 -5.04605469 3.24458984 -3.9453125 2.41015625 C-2 1 -2 1 0 0 Z " fill="#FEB90D" transform="translate(406,376)"/>
<path d="M0 0 C4.83915573 0.68987964 9.54468406 1.98792183 14 4 C13.67 4.66 13.34 5.32 13 6 C2.84375 3.5625 2.84375 3.5625 -1 1 C-0.67 0.67 -0.34 0.34 0 0 Z " fill="#FEB011" transform="translate(395,239)"/>
<path d="M0 0 C0.33 0.99 0.66 1.98 1 3 C-3.81900452 7.97963801 -3.81900452 7.97963801 -8.625 8.0625 C-9.73875 8.041875 -10.8525 8.02125 -12 8 C-12 7.67 -12 7.34 -12 7 C-11.0925 6.731875 -10.185 6.46375 -9.25 6.1875 C-6.26502899 5.09683752 -4.45887276 3.93197145 -2 2 C-1.34 2 -0.68 2 0 2 C0 1.34 0 0.68 0 0 Z " fill="#FABB0D" transform="translate(204,838)"/>
<path d="M0 0 C2 3 2 3 1.9375 6.375 C0.84501759 10.59926533 -0.71402978 12.21956366 -4 15 C-4.66 14.67 -5.32 14.34 -6 14 C-4.71937515 12.2925002 -3.38232443 10.62626404 -2 9 C-1.34 9 -0.68 9 0 9 C0 6.03 0 3.06 0 0 Z " fill="#F8C40A" transform="translate(948,825)"/>
<path d="M0 0 C0.94875 0.04125 1.8975 0.0825 2.875 0.125 C2.875 0.785 2.875 1.445 2.875 2.125 C3.535 2.125 4.195 2.125 4.875 2.125 C4.875 3.445 4.875 4.765 4.875 6.125 C3.885 5.795 2.895 5.465 1.875 5.125 C1.875 4.795 1.875 4.465 1.875 4.125 C-0.435 3.465 -2.745 2.805 -5.125 2.125 C-3.125 0.125 -3.125 0.125 0 0 Z " fill="#FEB511" transform="translate(411.125,265.875)"/>
<path d="M0 0 C0 0.99 0 1.98 0 3 C-2.64458379 4.32229189 -4.67761301 4.09677194 -7.625 4.0625 C-8.62789062 4.05347656 -9.63078125 4.04445313 -10.6640625 4.03515625 C-11.43492187 4.02355469 -12.20578125 4.01195312 -13 4 C-12.67 3.34 -12.34 2.68 -12 2 C-11.13375 2.04125 -10.2675 2.0825 -9.375 2.125 C-5.87641532 1.99542279 -3.25448403 1.23980344 0 0 Z " fill="#FEB70E" transform="translate(623,264)"/>
<path d="M0 0 C1.63001953 0.01353516 1.63001953 0.01353516 3.29296875 0.02734375 C4.12441406 0.03894531 4.95585938 0.05054688 5.8125 0.0625 C5.8125 0.3925 5.8125 0.7225 5.8125 1.0625 C2.5125 1.0625 -0.7875 1.0625 -4.1875 1.0625 C-4.1875 1.7225 -4.1875 2.3825 -4.1875 3.0625 C-6.4975 3.3925 -8.8075 3.7225 -11.1875 4.0625 C-8.11354407 -0.54843389 -5.19401656 -0.05584964 0 0 Z " fill="#FBC607" transform="translate(913.1875,757.9375)"/>
<path d="M0 0 C0 0.99 0 1.98 0 3 C-3.20807554 5.38314183 -6.06380262 6.43768609 -10 7 C-10.33 6.34 -10.66 5.68 -11 5 C-9.54462432 4.16151196 -8.08559627 3.32936066 -6.625 2.5 C-5.81289063 2.0359375 -5.00078125 1.571875 -4.1640625 1.09375 C-2 0 -2 0 0 0 Z " fill="#FEB80F" transform="translate(640,233)"/>
<path d="M0 0 C0 4.24645065 -1.81750806 6.38524772 -4 10 C-4.99 10 -5.98 10 -7 10 C-5.6062718 5.56541027 -3.39417765 3.12621626 0 0 Z " fill="#FECD08" transform="translate(474,599)"/>
<path d="M0 0 C3.77545388 1.09068668 6.47043472 1.9083091 9 5 C6 6 6 6 3.375 4.75 C1 3 1 3 0 0 Z " fill="#FEB30F" transform="translate(519,214)"/>
<path d="M0 0 C2.13586678 3.20380017 2.23132175 4.01939967 2.125 7.6875 C2.10695313 8.49574219 2.08890625 9.30398437 2.0703125 10.13671875 C2.04710937 10.75160156 2.02390625 11.36648437 2 12 C0.48046875 10.79296875 0.48046875 10.79296875 -1 9 C-1.07421875 6.73828125 -1.07421875 6.73828125 -0.6875 4.3125 C-0.56761719 3.50425781 -0.44773437 2.69601563 -0.32421875 1.86328125 C-0.21722656 1.24839844 -0.11023438 0.63351563 0 0 Z " fill="#FDAF12" transform="translate(362,192)"/>
<path d="M0 0 C1.32 0 2.64 0 4 0 C5.8125 1.8125 5.8125 1.8125 7 4 C6.67 4.99 6.34 5.98 6 7 C1.125 2.25 1.125 2.25 0 0 Z " fill="#FBB40E" transform="translate(86,824)"/>
<path d="M0 0 C0.33 0.66 0.66 1.32 1 2 C2.65 2 4.3 2 6 2 C6 2.66 6 3.32 6 4 C6.99 4.33 7.98 4.66 9 5 C1.375 4.125 1.375 4.125 -2 3 C-2 2.34 -2 1.68 -2 1 C-1.34 0.67 -0.68 0.34 0 0 Z " fill="#FEAF0D" transform="translate(391,261)"/>
<path d="M0 0 C2.64 0.33 5.28 0.66 8 1 C8.33 1.99 8.66 2.98 9 4 C4.545 3.01 4.545 3.01 0 2 C0 1.34 0 0.68 0 0 Z " fill="#FEB50D" transform="translate(527,245)"/>
<path d="M0 0 C3.79588866 0.54226981 5.47211993 2.20127563 8 5 C7.67 5.99 7.34 6.98 7 8 C5.8274869 7.04882866 4.66212985 6.08882991 3.5 5.125 C2.8503125 4.59132812 2.200625 4.05765625 1.53125 3.5078125 C1.0259375 3.01023438 0.520625 2.51265625 0 2 C0 1.34 0 0.68 0 0 Z " fill="#FCAB11" transform="translate(359,243)"/>
<path d="M0 0 C0.66 0.33 1.32 0.66 2 1 C-0.64 3.64 -3.28 6.28 -6 9 C-6.33 8.01 -6.66 7.02 -7 6 C-4.69 4.02 -2.38 2.04 0 0 Z " fill="#FED008" transform="translate(663,630)"/>
<path d="M0 0 C0.556875 0.226875 1.11375 0.45375 1.6875 0.6875 C-3.9375 4.6875 -3.9375 4.6875 -7.3125 4.6875 C-7.3125 4.0275 -7.3125 3.3675 -7.3125 2.6875 C-3.15982824 -0.42700382 -3.15982824 -0.42700382 0 0 Z " fill="#FDAF10" transform="translate(391.3125,141.3125)"/>
<path d="M0 0 C0.66 0.33 1.32 0.66 2 1 C2.33 1.99 2.66 2.98 3 4 C5.00016466 5.20882096 5.00016466 5.20882096 7 6 C7 6.66 7 7.32 7 8 C3.74456771 7.65120368 2.98126893 6.97866739 0.75 4.4375 C-0.11625 3.2309375 -0.11625 3.2309375 -1 2 C-0.67 1.34 -0.34 0.68 0 0 Z " fill="#FEB60E" transform="translate(569,133)"/>
<path d="M0 0 C3.3 0.99 6.6 1.98 10 3 C9.67 3.66 9.34 4.32 9 5 C7.68428397 4.7452486 6.37239624 4.47065859 5.0625 4.1875 C4.33160156 4.03667969 3.60070312 3.88585937 2.84765625 3.73046875 C2.23792969 3.48941406 1.62820313 3.24835938 1 3 C0.67 2.01 0.34 1.02 0 0 Z " fill="#FDAD11" transform="translate(533,80)"/>
<path d="M0 0 C0.33 0 0.66 0 1 0 C2.23076923 5.41538462 2.23076923 5.41538462 1.0625 8.375 C0.711875 8.91125 0.36125 9.4475 0 10 C-0.33 10 -0.66 10 -1 10 C-1.02689216 8.52093108 -1.04634621 7.04172517 -1.0625 5.5625 C-1.07410156 4.73878906 -1.08570313 3.91507812 -1.09765625 3.06640625 C-1 1 -1 1 0 0 Z " fill="#FEB70F" transform="translate(335,458)"/>
<path d="M0 0 C5.53846154 -0.36923077 5.53846154 -0.36923077 7.875 1.5 C8.24625 1.995 8.6175 2.49 9 3 C2.84765625 2.4140625 2.84765625 2.4140625 1 2 C0.67 1.34 0.34 0.68 0 0 Z " fill="#FEAF11" transform="translate(432,139)"/>
<path d="M0 0 C0 0.66 0 1.32 0 2 C-4.625 4.125 -4.625 4.125 -8 3 C-4.93882432 0.37613513 -4.26826873 0 0 0 Z " fill="#FEB60F" transform="translate(599,136)"/>
<path d="M0 0 C2.33944736 0.28730055 4.6739143 0.61936779 7 1 C7 1.66 7 2.32 7 3 C4.125 3.125 4.125 3.125 1 3 C0.34 2.34 -0.32 1.68 -1 1 C-0.67 0.67 -0.34 0.34 0 0 Z " fill="#FEB20F" transform="translate(523,102)"/>
<path d="M0 0 C0.33 0.99 0.66 1.98 1 3 C-0.4375 5.6875 -0.4375 5.6875 -2 8 C-2.99 7.67 -3.98 7.34 -5 7 C-3.35 4.69 -1.7 2.38 0 0 Z " fill="#FECF08" transform="translate(495,621)"/>
<path d="M0 0 C2.31 0.33 4.62 0.66 7 1 C7 1.66 7 2.32 7 3 C4.69 3 2.38 3 0 3 C0 2.01 0 1.02 0 0 Z " fill="#FDB80D" transform="translate(608,134)"/>
<path d="M0 0 C0.66 0.33 1.32 0.66 2 1 C1.67 3.31 1.34 5.62 1 8 C0.34 8 -0.32 8 -1 8 C-1.04241723 5.66705225 -1.04092937 3.33297433 -1 1 C-0.67 0.67 -0.34 0.34 0 0 Z " fill="#FDD009" transform="translate(688,624)"/>
<path d="M0 0 C4.75 0.875 4.75 0.875 7 2 C7 2.66 7 3.32 7 4 C4.03 3.505 4.03 3.505 1 3 C0.67 2.01 0.34 1.02 0 0 Z " fill="#FCB110" transform="translate(636,117)"/>
<path d="M0 0 C2.31 0 4.62 0 7 0 C7 0.33 7 0.66 7 1 C4.69 1 2.38 1 0 1 C0 0.67 0 0.34 0 0 Z " fill="#FFD011" transform="translate(472,790)"/>
<path d="M0 0 C0.66 0.66 1.32 1.32 2 2 C1.01 2.33 0.02 2.66 -1 3 C-0.67 2.01 -0.34 1.02 0 0 Z " fill="#FFCF0F" transform="translate(467,769)"/>
<path d="M0 0 C4 1 4 1 4 1 Z " fill="#EFC40E" transform="translate(628,847)"/>
<path d="M0 0 C0.99 0.495 0.99 0.495 2 1 C1.34 1.66 0.68 2.32 0 3 C0 2.01 0 1.02 0 0 Z " fill="#FFD010" transform="translate(294,811)"/>
<path d="M0 0 C1 4 1 4 1 4 Z " fill="#FED410" transform="translate(872,804)"/>
<path d="M0 0 C1 4 1 4 1 4 Z " fill="#FFC414" transform="translate(103,794)"/>
<path d="M0 0 C1.485 0.99 1.485 0.99 3 2 C2.01 2 1.02 2 0 2 C0 1.34 0 0.68 0 0 Z " fill="#FDCA12" transform="translate(226,781)"/>
<path d="M0 0 C4 1 4 1 4 1 Z " fill="#FEBF15" transform="translate(473,253)"/>
<path d="M0 0 C3 1 3 1 3 1 Z " fill="#EDC30D" transform="translate(853,847)"/>
<path d="M0 0 C3 1 3 1 3 1 Z " fill="#EFC40E" transform="translate(805,847)"/>
<path d="M0 0 C3 1 3 1 3 1 Z " fill="#ECB90F" transform="translate(245,847)"/>
<path d="M0 0 C0.66 0 1.32 0 2 0 C1.67 0.66 1.34 1.32 1 2 C0.67 1.34 0.34 0.68 0 0 Z " fill="#FFD60E" transform="translate(706,787)"/>
<path d="M0 0 C0.33 0.66 0.66 1.32 1 2 C0.34 1.67 -0.32 1.34 -1 1 C-0.67 0.67 -0.34 0.34 0 0 Z " fill="#FFD310" transform="translate(903,786)"/>
<path d="M0 0 C3 1 3 1 3 1 Z " fill="#FECF10" transform="translate(403,783)"/>
<path d="M0 0 C0.66 0.66 1.32 1.32 2 2 C1.34 2 0.68 2 0 2 C0 1.34 0 0.68 0 0 Z " fill="#FFD60F" transform="translate(573,767)"/>
<path d="M0 0 C3 1 3 1 3 1 Z " fill="#FDC214" transform="translate(124,751)"/>
<path d="M0 0 C3 1 3 1 3 1 Z " fill="#FFC312" transform="translate(131,750)"/>
<path d="" fill="#FDC312" transform="translate(0,0)"/>
<path d="" fill="#FABF13" transform="translate(0,0)"/>
<path d="M0 0 C3 1 3 1 3 1 Z " fill="#FCBE14" transform="translate(467,225)"/>
<path d="M0 0 C3 1 3 1 3 1 Z " fill="#F6B415" transform="translate(464,88)"/>
<path d="M0 0 C2 1 2 1 2 1 Z " fill="#EFC20F" transform="translate(467,862)"/>
<path d="M0 0 C2 1 2 1 2 1 Z " fill="#FECF11" transform="translate(489,840)"/>
<path d="" fill="#FED210" transform="translate(0,0)"/>
<path d="M0 0 C2 1 2 1 2 1 Z " fill="#FCCB10" transform="translate(418,827)"/>
<path d="M0 0 C2 1 2 1 2 1 Z " fill="#FACC11" transform="translate(309,824)"/>
<path d="" fill="#FFD60E" transform="translate(0,0)"/>
<path d="" fill="#FECF0F" transform="translate(0,0)"/>
<path d="" fill="#FFD30F" transform="translate(0,0)"/>
<path d="M0 0 C2 1 2 1 2 1 Z " fill="#FDD010" transform="translate(337,811)"/>
<path d="" fill="#FED30E" transform="translate(0,0)"/>
<path d="" fill="#FDD40F" transform="translate(0,0)"/>
<path d="M0 0 C2 1 2 1 2 1 Z " fill="#FFCF0F" transform="translate(470,791)"/>
<path d="" fill="#FECE0F" transform="translate(0,0)"/>
<path d="" fill="#FDCC11" transform="translate(0,0)"/>
<path d="" fill="#FEC516" transform="translate(0,0)"/>
<path d="" fill="#FED40D" transform="translate(0,0)"/>
<path d="M0 0 C2 1 2 1 2 1 Z " fill="#FED40D" transform="translate(822,783)"/>
<path d="" fill="#FED40F" transform="translate(0,0)"/>
<path d="M0 0 C2 1 2 1 2 1 Z " fill="#FECE0F" transform="translate(358,783)"/>
<path d="" fill="#FED310" transform="translate(0,0)"/>
<path d="M0 0 C2 1 2 1 2 1 Z " fill="#FCD00C" transform="translate(812,765)"/>
<path d="M0 0 C2 1 2 1 2 1 Z " fill="#FFD111" transform="translate(481,765)"/>
<path d="M0 0 C2 1 2 1 2 1 Z " fill="#F3C60F" transform="translate(896,760)"/>
<path d="M0 0 C2 1 2 1 2 1 Z " fill="#FAC811" transform="translate(289,760)"/>
<path d="M0 0 C2 1 2 1 2 1 Z " fill="#F5C50F" transform="translate(246,760)"/>
<path d="M0 0 C2 1 2 1 2 1 Z " fill="#FEC910" transform="translate(210,760)"/>
<path d="" fill="#FEC611" transform="translate(0,0)"/>
<path d="" fill="#FCD310" transform="translate(0,0)"/>
<path d="M0 0 C2 1 2 1 2 1 Z " fill="#FBC113" transform="translate(456,312)"/>
<path d="" fill="#EDC20E" transform="translate(0,0)"/>
<path d="" fill="#EFC00F" transform="translate(0,0)"/>
<path d="" fill="#F0C40F" transform="translate(0,0)"/>
<path d="" fill="#F0C510" transform="translate(0,0)"/>
<path d="" fill="#F1C60B" transform="translate(0,0)"/>
<path d="" fill="#F2C60D" transform="translate(0,0)"/>
<path d="" fill="#F5CD0D" transform="translate(0,0)"/>
<path d="" fill="#ECC410" transform="translate(0,0)"/>
<path d="" fill="#EEC40E" transform="translate(0,0)"/>
<path d="" fill="#FACB0F" transform="translate(0,0)"/>
<path d="" fill="#F7C50F" transform="translate(0,0)"/>
<path d="" fill="#FACE0F" transform="translate(0,0)"/>
<path d="" fill="#F8C014" transform="translate(0,0)"/>
<path d="" fill="#FBD10D" transform="translate(0,0)"/>
<path d="" fill="#FFCF11" transform="translate(0,0)"/>
<path d="" fill="#FDD311" transform="translate(0,0)"/>
<path d="" fill="#F8CE0F" transform="translate(0,0)"/>
<path d="" fill="#FCCD10" transform="translate(0,0)"/>
<path d="" fill="#F9C811" transform="translate(0,0)"/>
<path d="" fill="#FBCB10" transform="translate(0,0)"/>
<path d="" fill="#FDD012" transform="translate(0,0)"/>
<path d="" fill="#FFD011" transform="translate(0,0)"/>
<path d="" fill="#FCCD0D" transform="translate(0,0)"/>
<path d="" fill="#FAC90F" transform="translate(0,0)"/>
<path d="" fill="#FDC411" transform="translate(0,0)"/>
<path d="" fill="#FCCA11" transform="translate(0,0)"/>
<path d="" fill="#FED30F" transform="translate(0,0)"/>
<path d="" fill="#FCD011" transform="translate(0,0)"/>
<path d="" fill="#FBD00F" transform="translate(0,0)"/>
<path d="" fill="#FED50E" transform="translate(0,0)"/>
<path d="" fill="#FFD80E" transform="translate(0,0)"/>
<path d="" fill="#FED20F" transform="translate(0,0)"/>
<path d="" fill="#FBCE0F" transform="translate(0,0)"/>
<path d="" fill="#FBCD10" transform="translate(0,0)"/>
<path d="" fill="#FFD60C" transform="translate(0,0)"/>
<path d="" fill="#FDCF10" transform="translate(0,0)"/>
<path d="" fill="#FDCD11" transform="translate(0,0)"/>
<path d="" fill="#FED30E" transform="translate(0,0)"/>
<path d="" fill="#FFD60F" transform="translate(0,0)"/>
<path d="" fill="#FFC612" transform="translate(0,0)"/>
<path d="" fill="#FFD70F" transform="translate(0,0)"/>
<path d="" fill="#FED60F" transform="translate(0,0)"/>
<path d="" fill="#FDCF12" transform="translate(0,0)"/>
<path d="" fill="#FFCD12" transform="translate(0,0)"/>
<path d="" fill="#FACD10" transform="translate(0,0)"/>
<path d="" fill="#FED40E" transform="translate(0,0)"/>
<path d="" fill="#FFD210" transform="translate(0,0)"/>
<path d="" fill="#FFCC13" transform="translate(0,0)"/>
<path d="" fill="#FFD410" transform="translate(0,0)"/>
<path d="" fill="#FFD212" transform="translate(0,0)"/>
<path d="" fill="#FFCF12" transform="translate(0,0)"/>
<path d="" fill="#FFC812" transform="translate(0,0)"/>
<path d="" fill="#FEC514" transform="translate(0,0)"/>
<path d="" fill="#FFD510" transform="translate(0,0)"/>
<path d="" fill="#FFC711" transform="translate(0,0)"/>
<path d="" fill="#FED30F" transform="translate(0,0)"/>
<path d="" fill="#FFD011" transform="translate(0,0)"/>
<path d="" fill="#FBD410" transform="translate(0,0)"/>
<path d="" fill="#FFD30F" transform="translate(0,0)"/>
<path d="" fill="#FFD310" transform="translate(0,0)"/>
<path d="" fill="#FFD210" transform="translate(0,0)"/>
<path d="" fill="#F1C411" transform="translate(0,0)"/>
<path d="" fill="#FFD111" transform="translate(0,0)"/>
<path d="" fill="#FDD40F" transform="translate(0,0)"/>
<path d="" fill="#FFD010" transform="translate(0,0)"/>
<path d="" fill="#EEB316" transform="translate(0,0)"/>
<path d="" fill="#FFC714" transform="translate(0,0)"/>
<path d="" fill="#FFD210" transform="translate(0,0)"/>
<path d="" fill="#FFC913" transform="translate(0,0)"/>
<path d="" fill="#FFD410" transform="translate(0,0)"/>
<path d="" fill="#FECC0F" transform="translate(0,0)"/>
<path d="" fill="#FFC80E" transform="translate(0,0)"/>
<path d="" fill="#FFD60E" transform="translate(0,0)"/>
<path d="" fill="#FFD311" transform="translate(0,0)"/>
<path d="" fill="#FFD50E" transform="translate(0,0)"/>
<path d="" fill="#FFD010" transform="translate(0,0)"/>
<path d="" fill="#FFD510" transform="translate(0,0)"/>
<path d="" fill="#FFD40F" transform="translate(0,0)"/>
<path d="" fill="#FFD210" transform="translate(0,0)"/>
<path d="" fill="#FED511" transform="translate(0,0)"/>
<path d="" fill="#FDD511" transform="translate(0,0)"/>
<path d="" fill="#FFD011" transform="translate(0,0)"/>
<path d="" fill="#FFD40F" transform="translate(0,0)"/>
<path d="" fill="#FFD20F" transform="translate(0,0)"/>
<path d="" fill="#FFD70E" transform="translate(0,0)"/>
<path d="" fill="#FFD10F" transform="translate(0,0)"/>
<path d="" fill="#FFD40E" transform="translate(0,0)"/>
<path d="" fill="#FFD711" transform="translate(0,0)"/>
<path d="" fill="#FED212" transform="translate(0,0)"/>
<path d="" fill="#FDC912" transform="translate(0,0)"/>
<path d="" fill="#FEC314" transform="translate(0,0)"/>
<path d="" fill="#FBD30F" transform="translate(0,0)"/>
<path d="" fill="#FFD70E" transform="translate(0,0)"/>
<path d="" fill="#FFD00F" transform="translate(0,0)"/>
<path d="" fill="#FDC910" transform="translate(0,0)"/>
<path d="" fill="#FDD10D" transform="translate(0,0)"/>
<path d="" fill="#FFD511" transform="translate(0,0)"/>
<path d="" fill="#FEC812" transform="translate(0,0)"/>
<path d="" fill="#FFD70F" transform="translate(0,0)"/>
<path d="" fill="#FFD60F" transform="translate(0,0)"/>
<path d="" fill="#FED310" transform="translate(0,0)"/>
<path d="" fill="#FFD30E" transform="translate(0,0)"/>
<path d="" fill="#FEC415" transform="translate(0,0)"/>
<path d="" fill="#FDD110" transform="translate(0,0)"/>
<path d="" fill="#FCCE0E" transform="translate(0,0)"/>
<path d="" fill="#FCCF0E" transform="translate(0,0)"/>
<path d="" fill="#FFCF10" transform="translate(0,0)"/>
<path d="" fill="#FFD210" transform="translate(0,0)"/>
<path d="" fill="#FCCF0E" transform="translate(0,0)"/>
<path d="" fill="#FCC211" transform="translate(0,0)"/>
<path d="" fill="#FFD310" transform="translate(0,0)"/>
<path d="" fill="#FCCB0F" transform="translate(0,0)"/>
<path d="" fill="#FFD610" transform="translate(0,0)"/>
<path d="" fill="#FFCF10" transform="translate(0,0)"/>
<path d="" fill="#FFD10F" transform="translate(0,0)"/>
<path d="" fill="#FFCF0F" transform="translate(0,0)"/>
<path d="" fill="#FFC812" transform="translate(0,0)"/>
<path d="" fill="#FFD60F" transform="translate(0,0)"/>
<path d="" fill="#FFD710" transform="translate(0,0)"/>
<path d="" fill="#FFCF0E" transform="translate(0,0)"/>
<path d="" fill="#FDD010" transform="translate(0,0)"/>
<path d="" fill="#FFD50E" transform="translate(0,0)"/>
<path d="" fill="#FFD111" transform="translate(0,0)"/>
<path d="" fill="#FFD60E" transform="translate(0,0)"/>
<path d="" fill="#FFD00F" transform="translate(0,0)"/>
<path d="" fill="#FFD211" transform="translate(0,0)"/>
<path d="" fill="#FFD011" transform="translate(0,0)"/>
<path d="" fill="#FFD113" transform="translate(0,0)"/>
<path d="" fill="#FFCE0F" transform="translate(0,0)"/>
<path d="" fill="#EEC10E" transform="translate(0,0)"/>
<path d="" fill="#FDC914" transform="translate(0,0)"/>
<path d="" fill="#FBD20F" transform="translate(0,0)"/>
<path d="" fill="#FFD411" transform="translate(0,0)"/>
<path d="" fill="#FFC80F" transform="translate(0,0)"/>
<path d="" fill="#F7CE0E" transform="translate(0,0)"/>
<path d="" fill="#FCD310" transform="translate(0,0)"/>
<path d="" fill="#FFD410" transform="translate(0,0)"/>
<path d="" fill="#FDC212" transform="translate(0,0)"/>
<path d="" fill="#FFD010" transform="translate(0,0)"/>
<path d="" fill="#F1C40C" transform="translate(0,0)"/>
<path d="" fill="#F8CD0D" transform="translate(0,0)"/>
<path d="" fill="#FBD110" transform="translate(0,0)"/>
<path d="" fill="#FACC0F" transform="translate(0,0)"/>
<path d="" fill="#FFD111" transform="translate(0,0)"/>
<path d="" fill="#F0B313" transform="translate(0,0)"/>
<path d="" fill="#FFD410" transform="translate(0,0)"/>
<path d="" fill="#FFD111" transform="translate(0,0)"/>
<path d="" fill="#FED00E" transform="translate(0,0)"/>
<path d="" fill="#FEC511" transform="translate(0,0)"/>
<path d="" fill="#FEC314" transform="translate(0,0)"/>
<path d="" fill="#FED011" transform="translate(0,0)"/>
<path d="" fill="#FFD00F" transform="translate(0,0)"/>
<path d="" fill="#FFD111" transform="translate(0,0)"/>
<path d="" fill="#FED011" transform="translate(0,0)"/>
<path d="" fill="#F9C013" transform="translate(0,0)"/>
<path d="" fill="#FBBF13" transform="translate(0,0)"/>
<path d="" fill="#FECC11" transform="translate(0,0)"/>
<path d="" fill="#EEB613" transform="translate(0,0)"/>
<path d="" fill="#F0B813" transform="translate(0,0)"/>
<path d="" fill="#FBCF10" transform="translate(0,0)"/>
<path d="" fill="#F7C612" transform="translate(0,0)"/>
<path d="" fill="#F9D10E" transform="translate(0,0)"/>
<path d="" fill="#FFD312" transform="translate(0,0)"/>
<path d="" fill="#F2C211" transform="translate(0,0)"/>
<path d="" fill="#F5C110" transform="translate(0,0)"/>
<path d="" fill="#FFD70C" transform="translate(0,0)"/>
<path d="" fill="#F6C010" transform="translate(0,0)"/>
<path d="" fill="#FED511" transform="translate(0,0)"/>
<path d="" fill="#F6C211" transform="translate(0,0)"/>
<path d="" fill="#FFD211" transform="translate(0,0)"/>
<path d="" fill="#F8C110" transform="translate(0,0)"/>
<path d="" fill="#F7C011" transform="translate(0,0)"/>
<path d="" fill="#F5C013" transform="translate(0,0)"/>
<path d="" fill="#F9C110" transform="translate(0,0)"/>
<path d="" fill="#FABF13" transform="translate(0,0)"/>
<path d="" fill="#F8BF12" transform="translate(0,0)"/>
<path d="" fill="#FBC011" transform="translate(0,0)"/>
<path d="" fill="#FBBF11" transform="translate(0,0)"/>
<path d="" fill="#FABD12" transform="translate(0,0)"/>
<path d="" fill="#FBC014" transform="translate(0,0)"/>
<path d="" fill="#FBBF13" transform="translate(0,0)"/>
<path d="" fill="#FBBD14" transform="translate(0,0)"/>
<path d="" fill="#FECD10" transform="translate(0,0)"/>
<path d="" fill="#FED112" transform="translate(0,0)"/>
<path d="" fill="#FACC12" transform="translate(0,0)"/>
<path d="" fill="#FED211" transform="translate(0,0)"/>
<path d="" fill="#DFBA0F" transform="translate(0,0)"/>
<path d="" fill="#FFD810" transform="translate(0,0)"/>
<path d="" fill="#EBAA14" transform="translate(0,0)"/>
<path d="" fill="#FBD210" transform="translate(0,0)"/>
<path d="" fill="#FFCF12" transform="translate(0,0)"/>
<path d="" fill="#EFB116" transform="translate(0,0)"/>
<path d="" fill="#F4CC10" transform="translate(0,0)"/>
<path d="" fill="#FBD30F" transform="translate(0,0)"/>
<path d="" fill="#FDD110" transform="translate(0,0)"/>
<path d="" fill="#F7B815" transform="translate(0,0)"/>
<path d="" fill="#FCC612" transform="translate(0,0)"/>
<path d="" fill="#FABC16" transform="translate(0,0)"/>
<path d="" fill="#FDCE11" transform="translate(0,0)"/>
<path d="" fill="#FECC11" transform="translate(0,0)"/>
<path d="" fill="#F8BE14" transform="translate(0,0)"/>
<path d="" fill="#FEC614" transform="translate(0,0)"/>
<path d="" fill="#FDC910" transform="translate(0,0)"/>
<path d="" fill="#FFC817" transform="translate(0,0)"/>
<path d="" fill="#FEC115" transform="translate(0,0)"/>
<path d="" fill="#FBC514" transform="translate(0,0)"/>
<path d="" fill="#FFC615" transform="translate(0,0)"/>
<path d="" fill="#FFBF17" transform="translate(0,0)"/>
<path d="" fill="#FCC411" transform="translate(0,0)"/>
<path d="" fill="#FAB616" transform="translate(0,0)"/>
<path d="" fill="#FFC014" transform="translate(0,0)"/>
<path d="" fill="#FEC513" transform="translate(0,0)"/>
<path d="" fill="#FFC115" transform="translate(0,0)"/>
<path d="" fill="#FFC016" transform="translate(0,0)"/>
<path d="" fill="#FEC215" transform="translate(0,0)"/>
<path d="" fill="#FCC115" transform="translate(0,0)"/>
<path d="" fill="#F8B913" transform="translate(0,0)"/>
<path d="" fill="#FCC013" transform="translate(0,0)"/>
<path d="" fill="#EEA914" transform="translate(0,0)"/>
<path d="" fill="#FDC115" transform="translate(0,0)"/>
<path d="" fill="#FEC416" transform="translate(0,0)"/>
<path d="" fill="#FDC115" transform="translate(0,0)"/>
<path d="" fill="#FEBD17" transform="translate(0,0)"/>
<path d="" fill="#F0A916" transform="translate(0,0)"/>
<path d="" fill="#EBB413" transform="translate(0,0)"/>
<path d="" fill="#FAC015" transform="translate(0,0)"/>
<path d="" fill="#E8B214" transform="translate(0,0)"/>
<path d="" fill="#FCC115" transform="translate(0,0)"/>
<path d="" fill="#EBB512" transform="translate(0,0)"/>
<path d="" fill="#ECA916" transform="translate(0,0)"/>
<path d="" fill="#EBA619" transform="translate(0,0)"/>
<path d="" fill="#EAA519" transform="translate(0,0)"/>
<path d="" fill="#FAB618" transform="translate(0,0)"/>
<path d="" fill="#FCBC16" transform="translate(0,0)"/>
<path d="" fill="#EBAE14" transform="translate(0,0)"/>
<path d="" fill="#FCBE17" transform="translate(0,0)"/>
<path d="" fill="#FEC015" transform="translate(0,0)"/>
<path d="" fill="#FEBE15" transform="translate(0,0)"/>
<path d="" fill="#EFA914" transform="translate(0,0)"/>
<path d="" fill="#FBBC17" transform="translate(0,0)"/>
<path d="" fill="#FFBD16" transform="translate(0,0)"/>
</svg>
